<?xml version="1.0" standalone="no"?>
<!DOCTYPE svg PUBLIC "-//W3C//DTD SVG 20010904//EN"
 "http://www.w3.org/TR/2001/REC-SVG-20010904/DTD/svg10.dtd">
<svg version="1.0" xmlns="http://www.w3.org/2000/svg"
 width="1024.000000pt" height="1024.000000pt" viewBox="0 0 1024.000000 1024.000000"
 preserveAspectRatio="xMidYMid meet">
<metadata>
Created by potrace 1.11, written by Peter Selinger 2001-2013
</metadata>
<g transform="translate(0.000000,1024.000000) scale(0.100000,-0.100000)"
fill="#000000" stroke="none">
<path d="M5030 9796 c0 -14 -3 -16 -13 -8 -8 7 -18 7 -27 2 -8 -6 -30 -7 -48
-4 -20 4 -38 1 -49 -7 -14 -12 -16 -12 -8 0 6 11 4 13 -11 6 -10 -4 -34 -9
-53 -10 -18 -2 -37 -8 -41 -15 -6 -9 -9 -9 -13 1 -4 10 -6 10 -6 2 -1 -7 -9
-13 -19 -13 -10 0 -24 -6 -31 -12 -11 -11 -12 -10 -6 2 8 13 7 13 -9 1 -16
-14 -34 -19 -78 -23 -10 -1 -18 -6 -18 -10 0 -4 -7 -5 -15 -2 -8 4 -17 -1 -21
-9 -3 -9 -12 -13 -20 -10 -8 3 -14 0 -14 -7 0 -7 -8 -10 -20 -7 -11 3 -18 2
-15 -3 3 -4 -2 -11 -11 -14 -10 -4 -13 -2 -9 7 4 6 -1 3 -10 -8 -9 -11 -19
-20 -23 -20 -4 0 -6 -3 -5 -7 2 -4 -9 -5 -23 -2 -16 3 -23 1 -19 -6 4 -6 -4
-10 -19 -10 -13 0 -32 -7 -40 -16 -9 -8 -16 -12 -16 -7 0 4 -5 0 -11 -9 -5
-10 -16 -15 -24 -11 -11 4 -13 1 -8 -13 4 -12 3 -15 -5 -10 -7 4 -12 2 -12 -4
0 -6 -4 -8 -10 -5 -5 3 -10 1 -10 -4 0 -6 -5 -11 -10 -11 -6 0 -24 -14 -40
-30 -17 -17 -30 -29 -30 -26 0 3 -14 -8 -32 -24 -17 -16 -35 -27 -39 -24 -4 2
-11 -1 -15 -7 -4 -8 -3 -9 4 -5 8 5 10 2 6 -8 -6 -17 -24 -17 -37 -1 -4 6 -7
1 -5 -10 2 -14 -2 -19 -14 -17 -13 2 -16 -2 -11 -14 5 -13 3 -15 -7 -9 -10 6
-12 4 -7 -7 4 -12 1 -14 -15 -10 -14 3 -19 1 -14 -6 4 -7 2 -12 -6 -12 -7 0
-23 -12 -36 -27 -13 -16 -20 -21 -16 -13 7 13 5 13 -9 1 -9 -7 -15 -17 -12
-21 3 -4 -2 -11 -11 -14 -8 -3 -13 -10 -9 -15 3 -6 -4 -8 -15 -6 -11 2 -18 0
-15 -6 7 -10 -106 -128 -140 -147 -14 -8 -15 -11 -5 -12 9 0 5 -6 -10 -17 -14
-10 -28 -17 -32 -15 -5 1 -7 -1 -7 -6 3 -19 -2 -33 -10 -27 -5 3 -12 -4 -16
-15 -4 -11 -11 -18 -16 -15 -5 4 -9 -1 -9 -9 0 -9 -7 -16 -16 -16 -8 0 -12 -4
-9 -10 3 -5 -1 -10 -10 -10 -9 0 -13 -4 -10 -10 3 -5 1 -10 -4 -10 -6 0 -11
-7 -11 -16 0 -8 -5 -12 -11 -9 -6 4 -13 -2 -16 -14 -3 -12 -10 -21 -15 -21 -5
0 -7 -4 -4 -9 3 -5 -1 -12 -10 -15 -8 -3 -12 -10 -9 -16 3 -5 1 -10 -5 -10 -6
0 -15 -11 -20 -25 -5 -14 -14 -25 -20 -25 -6 0 -9 -4 -6 -9 3 -5 -1 -12 -10
-15 -9 -4 -14 -9 -11 -12 9 -9 -16 -33 -27 -26 -5 3 -6 -2 -3 -12 4 -10 1 -19
-7 -22 -8 -3 -16 -15 -19 -26 -3 -11 -10 -17 -16 -13 -7 3 -8 0 -5 -9 3 -9 1
-16 -5 -16 -6 0 -11 -6 -11 -14 0 -7 -11 -21 -25 -32 -19 -15 -22 -21 -12 -33
7 -8 8 -12 2 -9 -5 3 -21 -6 -35 -20 -18 -18 -19 -22 -5 -13 11 8 8 2 -8 -12
-15 -15 -27 -29 -28 -32 0 -16 -12 -34 -20 -29 -5 3 -9 -2 -9 -11 0 -9 -7 -23
-15 -32 -8 -8 -12 -20 -8 -26 4 -7 -1 -6 -10 2 -15 12 -17 12 -12 -2 4 -8 1
-18 -4 -22 -6 -3 -9 -11 -6 -16 4 -5 -1 -9 -9 -9 -15 0 -21 -12 -17 -34 1 -5
-5 -6 -14 -2 -13 4 -14 2 -5 -14 8 -16 8 -20 -2 -18 -7 2 -13 -4 -13 -12 0 -8
-8 -21 -18 -28 -9 -7 -15 -18 -11 -23 3 -5 0 -17 -8 -26 -11 -14 -11 -15 0 -9
11 7 11 4 0 -15 -7 -13 -20 -30 -28 -37 -8 -7 -9 -11 -2 -7 6 3 12 1 12 -4 0
-6 -4 -11 -10 -11 -5 0 -10 -9 -10 -19 0 -10 -6 -21 -14 -24 -8 -3 -12 -14 -9
-25 2 -10 -2 -26 -11 -34 -8 -9 -12 -18 -9 -22 3 -3 -2 -16 -13 -28 -10 -12
-13 -18 -6 -14 11 7 11 4 1 -12 -7 -12 -18 -18 -24 -14 -5 3 -4 -2 3 -11 15
-18 7 -41 -13 -34 -8 4 -11 -3 -9 -19 1 -13 -2 -24 -8 -24 -6 0 -4 -7 3 -17 8
-9 9 -14 3 -10 -13 8 -37 -40 -28 -55 4 -7 2 -8 -4 -4 -11 6 -17 -12 -13 -36
0 -5 -3 -8 -9 -8 -5 0 -10 -9 -10 -19 0 -11 -4 -23 -10 -26 -5 -3 -10 -15 -10
-26 0 -10 -5 -19 -11 -19 -8 0 -7 -6 2 -17 8 -9 9 -14 3 -10 -7 4 -15 0 -18
-9 -9 -23 -8 -26 7 -19 6 4 5 1 -3 -7 -19 -17 -23 -38 -7 -38 8 0 8 -3 -2 -9
-8 -5 -16 -15 -17 -23 -2 -7 -6 -26 -9 -43 -3 -16 -12 -33 -18 -37 -9 -5 -8
-8 3 -8 12 0 13 -2 1 -9 -7 -5 -10 -14 -7 -20 4 -6 1 -11 -6 -11 -10 0 -10 -2
1 -9 11 -7 10 -11 -5 -20 -11 -6 -14 -11 -8 -11 6 0 11 -7 11 -15 0 -8 -5 -11
-10 -8 -6 4 -8 0 -4 -10 3 -10 2 -17 -4 -17 -6 0 -8 -4 -5 -9 4 -5 0 -12 -6
-14 -10 -4 -9 -8 2 -16 10 -7 11 -11 3 -11 -7 0 -13 -9 -13 -20 0 -11 -6 -20
-12 -20 -10 0 -9 -3 1 -9 10 -6 10 -10 1 -16 -6 -4 -9 -13 -6 -20 2 -7 -3 -23
-11 -36 -9 -12 -11 -19 -5 -15 8 5 10 2 6 -8 -3 -9 -10 -16 -15 -16 -5 0 -9
-5 -9 -11 0 -6 6 -7 13 -2 6 4 4 -6 -7 -21 -10 -16 -13 -25 -6 -21 9 6 9 3 1
-13 -6 -11 -11 -32 -11 -47 0 -18 -4 -24 -12 -19 -9 5 -9 2 1 -9 11 -14 11
-20 1 -32 -10 -12 -10 -15 1 -15 11 0 11 -2 -1 -10 -13 -9 -13 -10 0 -10 12 0
13 -2 1 -9 -9 -6 -13 -26 -13 -60 1 -39 -1 -50 -11 -45 -9 6 -9 5 0 -7 10 -12
10 -18 1 -27 -9 -9 -9 -12 2 -12 11 0 11 -3 2 -12 -16 -16 -15 -31 1 -22 9 5
9 4 0 -6 -6 -7 -9 -19 -6 -28 5 -11 2 -13 -6 -7 -10 6 -11 3 -2 -14 10 -18 9
-21 -6 -22 -16 0 -16 -1 2 -9 11 -5 15 -9 9 -9 -5 -1 -9 -14 -8 -31 1 -17 -3
-30 -9 -30 -8 0 -8 -3 -2 -8 14 -10 17 -32 4 -32 -8 0 -8 -5 1 -15 9 -11 9
-15 1 -15 -7 0 -10 -4 -7 -9 3 -5 -1 -14 -9 -21 -8 -7 -13 -23 -11 -36 3 -12
-1 -25 -7 -28 -9 -3 -9 -5 1 -5 6 -1 12 -6 12 -12 0 -5 -6 -7 -12 -4 -7 4 -5
0 5 -8 17 -14 17 -15 0 -21 -10 -4 -13 -10 -8 -14 13 -9 14 -52 2 -52 -5 0 -4
-7 3 -15 9 -10 9 -15 1 -15 -6 0 -11 -5 -11 -11 0 -5 5 -7 11 -3 6 3 4 -5 -5
-19 -13 -20 -14 -26 -4 -30 10 -4 10 -8 -2 -17 -12 -9 -12 -13 -2 -17 10 -4
10 -8 0 -21 -11 -13 -11 -15 2 -7 12 6 13 5 3 -6 -15 -15 -17 -33 -4 -25 10 7
8 -9 -4 -36 -4 -10 -5 -25 -1 -33 3 -8 0 -15 -6 -15 -6 0 -4 -8 5 -18 10 -10
17 -23 17 -28 0 -5 -5 -2 -10 6 -8 13 -10 13 -10 -2 0 -9 6 -19 13 -21 8 -4 8
-8 2 -14 -16 -13 -19 -46 -3 -38 7 3 2 -3 -11 -14 -13 -12 -18 -21 -11 -21 7
0 9 -8 5 -21 -5 -15 -4 -19 5 -14 9 6 9 3 1 -12 -7 -14 -7 -24 2 -33 10 -10 8
-12 -8 -6 -16 6 -18 5 -7 -5 15 -16 16 -99 1 -99 -6 0 -3 -7 5 -16 21 -20 20
-28 0 -20 -13 5 -14 3 -6 -6 6 -7 9 -28 8 -46 -1 -17 3 -32 8 -32 6 0 3 -7 -7
-14 -14 -11 -15 -15 -5 -19 10 -4 10 -8 -2 -16 -12 -8 -12 -11 -1 -11 11 0 11
-3 0 -17 -11 -13 -11 -17 -1 -21 10 -3 10 -7 1 -18 -8 -10 -8 -14 0 -14 7 0 8
-8 1 -24 -5 -13 -7 -26 -4 -29 9 -9 13 -47 3 -42 -5 4 -9 1 -9 -4 0 -6 6 -11
13 -11 8 0 7 -4 -3 -10 -11 -7 -12 -10 -2 -10 10 0 13 -13 10 -50 -1 -28 0
-51 5 -53 4 -1 9 -12 12 -25 2 -13 0 -20 -6 -17 -10 7 -7 -30 4 -41 4 -4 2
-13 -4 -21 -9 -10 -8 -13 2 -13 8 0 6 -6 -7 -16 -10 -8 -14 -13 -7 -10 6 4 14
2 18 -4 3 -5 1 -10 -6 -10 -8 0 -7 -5 2 -17 10 -11 10 -14 2 -9 -7 4 -13 3
-13 -3 0 -5 5 -13 10 -16 7 -4 7 -12 0 -25 -7 -13 -6 -21 5 -30 10 -8 11 -18
5 -36 -8 -20 -6 -24 8 -25 10 0 12 -3 5 -6 -16 -6 -17 -33 -1 -33 6 0 8 -3 5
-7 -4 -3 -2 -12 4 -20 9 -10 8 -13 -2 -13 -9 -1 -8 -5 5 -15 20 -15 20 -15 0
-15 -18 -1 -18 -1 -1 -11 14 -8 16 -14 6 -25 -9 -11 -9 -14 1 -14 9 0 9 -4 -1
-17 -10 -11 -10 -14 -1 -9 6 4 12 3 12 -3 0 -5 -5 -13 -11 -17 -8 -5 -8 -9 1
-14 8 -5 9 -13 2 -26 -10 -20 -5 -47 7 -40 4 3 7 -4 7 -15 0 -13 -5 -18 -15
-14 -10 4 -9 -1 5 -16 10 -12 14 -19 7 -16 -7 5 -9 0 -6 -13 3 -11 10 -17 17
-13 6 4 5 -1 -3 -10 -7 -9 -10 -17 -5 -17 5 0 2 -5 -6 -10 -13 -8 -12 -10 3
-10 10 0 16 -4 12 -9 -3 -5 -1 -12 5 -16 5 -3 10 -13 10 -21 0 -8 -4 -12 -10
-9 -6 3 -7 -1 -4 -9 3 -9 9 -14 13 -12 4 3 7 -4 7 -15 0 -10 -5 -19 -10 -19
-5 0 -1 -7 10 -15 12 -9 14 -14 6 -15 -7 0 -11 -4 -8 -9 3 -4 6 -35 7 -67 1
-32 7 -62 13 -66 7 -5 6 -8 -3 -8 -9 0 -6 -7 9 -20 13 -11 18 -20 12 -20 -7 0
-12 -5 -12 -11 0 -5 6 -7 13 -3 7 5 6 0 -3 -11 -9 -11 -10 -16 -2 -11 7 4 12
1 12 -8 0 -9 -5 -16 -11 -16 -6 0 -4 -6 4 -14 12 -12 14 -32 8 -79 -1 -5 -6
-5 -13 -1 -7 4 -8 3 -4 -5 6 -9 11 -9 24 1 14 12 14 10 3 -9 -7 -15 -8 -23 -1
-23 5 0 10 -5 10 -11 0 -5 -6 -7 -12 -3 -9 5 -9 3 1 -9 7 -9 11 -28 9 -41 -4
-17 -1 -23 9 -19 7 3 13 -1 13 -10 0 -8 -6 -18 -12 -20 -7 -3 -4 -6 7 -6 17
-1 17 -3 5 -11 -12 -8 -12 -10 5 -11 11 0 14 -3 7 -6 -10 -4 -10 -8 0 -21 11
-13 10 -15 -4 -9 -12 4 -15 2 -11 -9 3 -7 9 -14 13 -14 5 0 8 -15 8 -32 -1
-56 6 -97 16 -91 5 4 7 -3 4 -15 -3 -12 -3 -21 1 -20 19 2 22 -4 10 -19 -10
-11 -10 -14 -1 -9 8 5 12 -2 12 -24 0 -22 4 -29 13 -24 8 5 8 2 -2 -9 -7 -9
-9 -17 -3 -17 5 0 13 -7 16 -16 3 -8 2 -13 -3 -10 -5 4 -7 -3 -4 -14 3 -11 10
-17 15 -14 6 4 5 -4 -2 -16 -7 -12 -8 -20 -2 -16 5 3 13 -1 16 -10 4 -10 2
-13 -7 -9 -6 4 -4 0 5 -8 14 -11 15 -16 5 -27 -10 -10 -9 -11 2 -5 11 6 13 4
8 -8 -3 -9 -3 -18 2 -21 4 -3 6 -19 5 -35 -1 -17 3 -31 8 -31 6 0 7 -7 4 -15
-3 -9 1 -18 9 -22 12 -4 13 -9 5 -18 -8 -10 -7 -16 7 -24 13 -7 14 -10 4 -11
-11 0 -10 -4 4 -13 13 -10 15 -16 6 -21 -9 -6 -7 -12 6 -23 11 -9 12 -12 3 -8
-13 6 -13 5 0 -7 9 -7 15 -27 15 -45 0 -21 3 -28 11 -22 12 10 13 -19 1 -38
-4 -6 -1 -13 5 -16 10 -3 10 -9 1 -25 -9 -16 -10 -23 -1 -28 7 -5 8 -2 3 7 -5
8 4 3 18 -10 19 -17 25 -31 21 -44 -4 -13 -2 -17 5 -13 8 5 8 -1 0 -21 -5 -15
-7 -24 -3 -20 8 7 44 -46 44 -64 0 -6 7 -17 16 -26 8 -9 13 -22 10 -29 -3 -8
-1 -14 3 -14 5 0 12 -7 15 -16 4 -10 2 -13 -6 -8 -13 8 -4 -10 21 -41 15 -18
15 -19 -2 -6 -15 12 -17 12 -11 -3 3 -9 10 -16 14 -16 4 0 11 -7 14 -16 4 -10
2 -13 -7 -8 -9 6 -9 5 0 -8 7 -8 10 -17 7 -21 -3 -3 3 -11 14 -18 12 -7 18
-19 14 -27 -3 -10 -1 -13 6 -8 8 5 12 0 13 -13 3 -38 4 -42 19 -51 12 -8 12
-10 1 -10 -11 0 -11 -3 0 -17 12 -15 12 -16 -1 -8 -12 7 -13 6 -3 -7 7 -8 9
-19 5 -24 -4 -4 1 -2 11 6 16 11 18 11 15 -1 -2 -8 -7 -17 -13 -21 -6 -4 -2
-8 9 -8 12 0 16 -5 12 -16 -4 -10 -2 -13 6 -8 8 5 9 0 5 -15 -4 -17 -2 -21 9
-17 9 3 12 1 9 -4 -3 -6 -1 -10 4 -10 6 0 11 -5 11 -11 0 -5 -6 -7 -12 -4 -7
4 -6 1 2 -7 28 -23 50 -62 50 -85 0 -13 5 -23 11 -23 5 0 8 -4 4 -9 -3 -6 5
-20 17 -32 13 -12 16 -18 8 -14 -12 7 -13 6 -3 -7 7 -8 10 -18 6 -21 -3 -4 -1
-7 5 -7 7 0 12 -11 12 -24 0 -14 5 -28 12 -32 6 -4 8 -3 4 4 -3 6 -1 14 5 18
7 4 9 3 5 -4 -3 -6 -2 -14 4 -17 8 -5 7 -11 -1 -21 -9 -11 -8 -14 5 -14 10 0
14 -4 11 -10 -3 -5 -1 -10 5 -10 6 0 8 -4 5 -10 -3 -5 -1 -10 5 -10 6 0 9 -4
6 -9 -4 -5 -1 -11 4 -13 6 -2 13 -12 14 -23 2 -11 9 -19 16 -17 8 2 9 -5 5
-19 -6 -18 -4 -21 10 -15 15 5 16 4 5 -9 -8 -10 -9 -15 -1 -15 6 0 10 -6 9
-12 -2 -7 3 -12 10 -10 8 1 11 -2 8 -7 -4 -5 2 -17 11 -27 10 -9 18 -22 19
-28 0 -6 2 -17 2 -23 1 -7 8 -13 16 -13 10 0 13 -7 11 -20 -2 -11 0 -18 6 -15
5 4 9 -3 9 -15 0 -13 4 -19 12 -14 8 5 9 0 5 -15 -5 -19 -3 -20 11 -9 13 11
15 11 9 -4 -4 -11 0 -21 11 -27 9 -6 12 -11 5 -11 -9 0 -8 -6 4 -19 9 -11 21
-17 26 -14 6 4 8 -1 4 -10 -3 -10 -3 -17 2 -17 5 0 12 -11 15 -25 4 -14 11
-23 17 -19 6 3 13 -3 16 -15 3 -12 9 -21 14 -21 5 0 9 -12 9 -26 0 -23 2 -25
16 -14 8 8 14 9 13 4 -6 -24 30 -74 52 -74 7 0 10 -3 6 -6 -9 -9 16 -33 28
-26 6 3 3 -3 -5 -13 -9 -11 -10 -16 -2 -11 7 4 14 1 18 -8 3 -9 12 -12 22 -8
15 5 15 4 3 -12 -8 -9 -10 -16 -5 -15 21 4 35 -2 29 -11 -3 -5 2 -10 12 -10
14 0 15 -2 5 -9 -10 -6 -9 -10 7 -14 12 -3 21 -12 21 -21 0 -9 7 -16 16 -16
10 0 14 -6 11 -14 -4 -9 2 -13 15 -12 11 0 26 -8 32 -18 16 -27 60 -71 75 -74
19 -4 43 -30 37 -40 -2 -4 9 -7 25 -6 24 2 28 -1 19 -11 -9 -11 -7 -12 9 -8
12 3 21 1 21 -6 0 -6 7 -11 16 -11 9 0 24 -10 35 -23 17 -20 19 -20 13 -2 -5
19 -5 19 9 2 8 -9 20 -17 26 -17 7 0 9 -5 5 -12 -5 -8 -2 -9 9 -5 9 3 19 2 22
-4 4 -5 10 -7 15 -4 5 3 16 -5 25 -18 11 -18 22 -23 40 -19 16 3 25 0 25 -8 0
-7 8 -10 20 -7 12 3 18 1 14 -5 -4 -6 2 -8 15 -3 12 4 28 2 35 -4 19 -16 148
-23 139 -8 -3 7 3 4 14 -6 11 -9 23 -14 27 -10 10 10 139 12 153 1 7 -6 14 -5
19 3 5 8 3 9 -6 4 -9 -5 -11 -4 -6 4 6 9 11 9 21 1 9 -8 14 -8 17 1 3 9 10 9
28 -1 22 -12 24 -12 12 2 -10 13 -9 15 13 13 14 -2 25 1 25 5 0 5 9 7 20 5 11
-2 20 1 20 6 0 6 5 7 10 4 6 -3 10 -1 10 5 0 6 5 8 10 5 6 -3 10 -1 10 5 0 7
7 10 15 6 8 -3 15 0 15 6 0 6 6 5 17 -3 10 -8 14 -9 10 -2 -4 6 -3 14 3 18 5
3 10 1 10 -6 0 -8 5 -6 13 5 7 9 22 18 34 19 13 0 25 8 28 16 5 14 7 14 15 1
8 -13 10 -12 10 3 0 10 5 15 10 12 6 -3 10 0 10 7 0 9 3 9 10 -2 8 -13 10 -13
10 2 0 11 5 15 14 12 8 -3 17 0 21 5 3 6 11 8 17 5 6 -4 8 -2 4 4 -3 6 -2 13
4 17 5 3 10 2 10 -4 0 -6 7 -8 15 -5 8 4 15 10 15 16 0 5 -5 6 -12 2 -6 -4 -8
-3 -5 4 4 5 18 9 31 8 18 -2 23 1 18 12 -3 10 -1 13 6 8 7 -4 12 -1 12 9 0 10
6 15 13 13 16 -6 50 29 34 36 -7 2 -1 5 12 5 16 1 21 5 18 15 -4 10 0 14 13
11 11 -2 23 1 26 7 5 7 2 8 -6 3 -9 -6 -11 -4 -6 4 5 7 14 10 22 7 7 -3 16 0
20 6 4 6 3 8 -4 4 -6 -4 -10 1 -9 13 0 10 6 17 13 14 7 -2 15 1 20 8 4 8 3 10
-4 5 -8 -5 -10 -1 -5 10 6 15 7 15 21 -2 13 -18 14 -18 8 3 -6 18 -4 21 16 16
13 -3 19 -1 13 4 -16 13 -15 29 1 31 7 1 21 3 29 4 8 1 16 7 19 14 3 9 -1 11
-12 7 -14 -6 -15 -5 -2 9 8 9 18 14 21 12 11 -6 34 31 33 54 -1 18 1 20 13 11
11 -10 12 -8 7 6 -6 14 -3 16 16 10 16 -5 21 -4 18 6 -3 8 -14 13 -24 11 -18
-3 -18 -3 1 11 11 9 23 13 27 11 4 -3 5 2 2 10 -4 9 -1 16 6 16 7 0 10 7 6 16
-3 8 -2 12 4 9 6 -3 14 5 19 18 6 14 15 28 20 32 6 3 11 15 11 26 0 11 4 18 9
15 10 -7 25 23 22 43 -2 9 3 12 13 8 11 -4 13 -1 9 10 -5 12 -2 15 9 11 11 -5
14 -1 11 16 -3 13 2 30 11 38 8 9 12 18 9 22 -4 3 -1 6 5 6 7 0 12 5 12 11 0
5 -6 7 -12 3 -9 -6 -9 -3 0 9 8 9 10 22 6 28 -5 8 -3 9 6 4 8 -5 11 -3 8 6 -3
8 1 19 8 24 6 6 15 21 19 34 6 18 4 22 -6 15 -12 -7 -12 -5 0 9 7 9 18 14 25
10 6 -4 6 0 -2 9 -10 13 -10 17 3 22 9 3 13 11 10 17 -4 5 1 17 11 25 11 9 13
13 7 9 -20 -10 -15 13 5 24 10 6 12 11 4 11 -7 0 -10 5 -7 10 4 6 10 8 15 5 5
-3 12 0 16 6 4 8 3 9 -4 5 -7 -4 -12 -2 -12 3 0 6 5 11 11 11 5 0 7 5 4 10 -3
6 -1 10 4 10 6 0 11 5 11 11 0 5 -4 7 -10 4 -6 -3 -7 1 -4 9 3 9 10 13 15 10
8 -4 12 17 8 42 0 4 5 10 12 15 7 4 14 18 16 30 2 13 9 27 16 31 6 4 8 8 3 8
-5 0 -4 6 2 13 6 6 11 17 12 22 1 6 6 9 10 8 4 -1 5 7 2 19 -3 13 -1 19 5 15
5 -3 9 4 7 16 -1 12 5 33 13 46 12 18 12 22 2 16 -8 -3 -7 -1 2 7 9 7 14 19
11 27 -3 8 0 11 6 7 6 -4 8 2 4 16 -3 13 -1 19 6 15 6 -5 9 2 7 19 -2 19 1 24
13 19 12 -4 12 -3 3 9 -8 10 -9 16 -1 21 6 3 8 10 5 15 -3 4 2 11 11 14 9 3
14 12 11 20 -3 8 0 22 8 32 10 15 11 22 2 33 -8 10 -9 13 -1 8 7 -4 14 5 18
26 5 26 9 29 17 17 9 -12 10 -11 4 5 -11 33 -11 40 1 38 8 -1 10 6 6 19 -3 13
-1 19 5 15 7 -5 9 1 5 15 -4 16 -2 19 8 13 9 -5 11 -4 6 4 -4 6 0 25 8 42 9
17 13 35 10 40 -3 5 -1 9 5 9 6 0 8 7 5 15 -4 8 -1 15 6 15 9 0 9 4 2 13 -7 8
-6 19 3 37 7 13 11 30 8 37 -3 7 1 13 8 13 7 0 9 3 6 7 -4 3 1 12 11 20 9 8
11 12 4 8 -13 -7 -12 20 2 43 4 7 5 16 2 19 -3 3 -1 12 6 20 9 11 7 12 -8 8
-12 -4 -9 0 6 9 14 8 19 15 11 16 -11 0 -11 3 -1 15 10 12 10 15 -1 16 -8 0
-5 4 6 9 14 6 15 9 5 10 -13 0 -13 2 0 10 9 5 16 22 15 42 0 18 7 38 15 45 12
9 12 14 3 24 -8 8 -9 19 -2 37 5 14 7 32 4 40 -4 11 -2 12 8 4 10 -9 13 -6 14
11 3 38 10 73 18 87 4 7 2 16 -6 22 -10 7 -8 9 8 5 19 -4 20 -2 11 13 -9 14
-9 22 0 33 7 8 10 22 6 31 -3 9 -1 16 6 16 6 0 8 5 5 10 -4 6 -11 7 -17 4 -7
-4 -8 -2 -4 5 4 6 12 8 18 5 7 -5 9 -2 5 8 -3 9 0 21 6 28 9 10 9 14 -1 17 -6
3 -9 10 -5 16 8 13 13 44 14 89 0 16 6 28 12 28 8 0 7 3 -2 9 -9 6 -10 11 -3
15 6 4 8 14 5 23 -5 12 -3 14 7 8 10 -6 11 -4 4 6 -10 17 -6 49 9 68 10 12 9
14 -4 9 -15 -6 -15 -2 -6 27 5 19 14 32 19 29 4 -3 4 6 -2 20 -5 15 -6 26 -1
26 5 0 8 8 6 18 -1 9 0 22 4 27 3 6 7 19 8 30 3 16 1 17 -7 5 -5 -8 -10 -10
-10 -5 1 6 7 19 16 30 13 18 13 20 -3 27 -17 6 -17 7 0 7 15 1 16 4 6 22 -7
13 -7 19 -1 15 7 -4 10 4 8 21 -1 16 2 34 7 40 5 7 7 24 5 38 -3 13 -2 22 2
20 5 -3 11 2 14 11 3 8 2 12 -4 9 -6 -3 -10 1 -10 9 0 9 6 16 13 16 8 0 7 4
-3 10 -12 7 -12 10 -1 10 9 0 11 8 7 25 -4 17 -2 25 6 25 9 0 8 3 -2 10 -11 7
-11 10 -2 10 10 0 10 5 1 22 -10 18 -9 20 7 14 18 -6 18 -5 0 9 -11 8 -15 15
-9 15 6 0 14 7 17 16 4 9 2 13 -5 8 -7 -4 -6 3 2 17 7 13 12 25 11 27 -1 1 1
1 4 0 3 -2 10 5 15 14 21 38 76 -11 82 -72 2 -23 8 -45 13 -48 5 -4 9 -21 9
-39 -1 -18 4 -34 11 -37 6 -2 10 -16 9 -30 -2 -14 1 -26 7 -26 6 0 4 -7 -3
-17 -10 -11 -10 -14 -1 -9 8 5 12 0 12 -13 0 -12 6 -21 13 -21 9 0 9 -2 0 -8
-9 -6 -7 -16 8 -41 11 -18 15 -30 9 -26 -15 9 -12 -8 7 -34 9 -14 11 -21 5
-17 -17 10 -15 0 4 -18 12 -12 12 -16 2 -16 -11 0 -11 -2 0 -9 7 -4 14 -24 15
-44 1 -21 5 -37 8 -37 6 0 9 -17 10 -52 0 -10 3 -17 7 -17 21 3 24 -3 6 -16
-18 -14 -18 -14 4 -10 16 3 20 0 15 -8 -12 -19 -12 -37 -1 -37 5 0 6 -9 3 -21
-4 -13 -3 -19 2 -16 5 4 10 0 10 -8 0 -8 -5 -15 -11 -15 -5 0 -1 -7 10 -16 10
-8 13 -13 7 -9 -9 4 -11 1 -7 -9 3 -9 10 -14 14 -11 4 2 7 -6 6 -18 -1 -12 4
-30 10 -41 7 -10 10 -25 7 -34 -5 -11 -3 -13 7 -7 10 6 12 4 7 -7 -3 -9 0 -24
8 -34 9 -13 10 -23 3 -31 -7 -9 -7 -13 2 -13 6 0 10 -6 7 -12 -2 -7 3 -19 12
-26 13 -11 13 -12 1 -6 -10 5 -8 -1 5 -16 11 -13 14 -20 8 -16 -7 4 -13 2 -13
-3 0 -6 4 -11 10 -11 5 0 6 -7 3 -17 -5 -11 -3 -14 6 -8 10 5 11 2 7 -13 -4
-12 0 -26 10 -36 9 -9 13 -23 10 -31 -3 -8 -1 -15 5 -15 6 0 9 -7 5 -15 -3 -8
-2 -15 2 -15 4 0 9 -9 10 -20 4 -43 6 -50 13 -50 9 0 24 -40 21 -54 -2 -4 3
-15 10 -24 10 -12 10 -14 1 -8 -7 4 -13 3 -13 -2 0 -6 7 -13 16 -16 13 -5 14
-9 4 -21 -9 -10 -9 -15 -1 -15 6 0 11 -11 11 -25 0 -13 8 -29 18 -34 12 -8 13
-10 3 -11 -11 0 -10 -4 5 -16 10 -8 12 -12 4 -8 -10 5 -8 -1 5 -16 11 -13 14
-20 8 -16 -7 4 -13 2 -13 -3 0 -6 4 -11 9 -11 5 0 8 -8 7 -18 -2 -9 6 -23 16
-30 16 -12 17 -16 6 -30 -10 -12 -10 -14 0 -8 8 5 12 -2 12 -24 0 -17 4 -29 9
-25 6 3 10 -3 11 -12 1 -45 5 -61 12 -57 7 5 12 -10 9 -28 0 -5 4 -8 10 -8 8
0 7 -6 -2 -17 -8 -10 -9 -14 -2 -10 6 4 14 3 18 -3 3 -5 1 -10 -5 -10 -6 0 -8
-5 -5 -10 4 -6 11 -8 16 -5 5 4 9 -3 9 -14 0 -12 4 -21 10 -21 5 0 7 -7 4 -15
-4 -9 0 -15 7 -15 11 0 11 -3 -1 -10 -13 -8 -13 -10 2 -10 9 0 20 -5 24 -12 4
-7 3 -8 -4 -4 -8 5 -10 2 -6 -8 3 -9 9 -14 13 -12 4 3 8 -4 9 -15 4 -44 6 -49
20 -49 8 0 12 -6 9 -14 -6 -15 18 -30 33 -21 5 3 12 0 16 -6 5 -8 3 -9 -6 -4
-9 6 -11 4 -6 -4 5 -7 14 -10 22 -7 13 5 19 -6 15 -27 -1 -5 3 -6 9 -2 6 3 8
10 5 15 -6 10 15 8 33 -3 7 -5 9 -14 5 -20 -5 -9 -3 -9 8 -1 8 6 30 12 50 12
53 2 107 57 103 107 -1 20 -5 39 -8 42 -3 4 -1 12 5 20 9 9 8 13 0 13 -6 0
-11 5 -11 11 0 5 6 7 13 3 6 -4 3 3 -8 16 -11 13 -14 20 -7 16 11 -7 12 -4 3
13 -7 11 -17 21 -23 21 -7 0 -6 6 2 16 11 12 11 15 0 12 -7 -2 -13 7 -15 20
-1 13 -8 27 -15 32 -8 5 -9 9 -1 11 7 3 6 12 -3 31 -11 20 -11 28 -3 32 7 2 4
5 -5 5 -11 1 -16 8 -13 21 2 13 -2 23 -12 27 -14 6 -14 7 3 14 18 7 18 8 0 8
-16 1 -17 3 -5 18 8 9 9 14 3 10 -13 -8 -25 14 -30 53 -2 14 -8 26 -14 28 -14
5 -13 32 3 32 7 0 8 3 2 8 -5 4 -17 16 -25 26 -13 17 -13 19 0 11 9 -6 6 4 -8
29 -12 20 -16 34 -10 30 10 -6 11 -4 1 7 -7 7 -13 23 -13 36 0 13 -5 23 -11
23 -7 0 -9 10 -7 25 3 15 1 22 -5 18 -6 -4 -8 0 -4 11 4 10 1 19 -7 22 -8 3
-13 13 -12 22 2 9 -3 22 -10 29 -7 7 -10 22 -7 34 5 17 3 20 -8 14 -8 -5 -11
-5 -7 0 4 4 1 22 -7 40 -7 19 -11 36 -7 39 3 3 -2 6 -12 6 -9 0 -14 5 -11 10
4 6 11 7 17 4 6 -4 6 0 -1 13 -6 11 -7 24 -3 29 4 5 0 3 -8 -3 -12 -9 -15 -7
-17 10 -3 33 -8 51 -16 65 -5 7 -3 12 4 12 7 0 5 9 -6 26 -9 15 -13 24 -8 21
5 -4 10 0 10 8 0 8 -5 11 -10 8 -6 -4 -8 1 -4 11 5 13 3 17 -7 13 -11 -4 -13
1 -10 20 3 15 8 31 11 36 3 6 1 7 -5 3 -8 -5 -12 2 -12 18 0 14 -6 26 -12 26
-9 0 -8 4 2 10 10 6 11 10 3 10 -7 0 -13 5 -13 11 0 5 6 7 13 4 6 -4 4 0 -7 9
-10 8 -16 22 -13 31 4 8 3 15 -2 15 -4 0 -8 7 -9 15 -1 8 -3 22 -4 30 -1 8 -5
15 -10 15 -5 0 -6 5 -3 10 3 6 1 10 -5 10 -7 0 -10 7 -6 15 3 8 1 15 -5 15 -6
0 -10 10 -9 23 4 39 1 49 -12 41 -9 -5 -9 -2 1 9 11 15 11 17 -2 17 -10 0 -13
6 -10 20 3 12 0 20 -7 20 -9 0 -9 4 1 17 10 11 10 14 2 9 -12 -6 -18 5 -14 27
0 4 -4 7 -9 7 -6 0 -10 5 -10 11 0 5 6 7 13 3 10 -6 10 -4 0 7 -7 7 -13 23
-13 35 0 12 -6 25 -12 27 -9 4 -9 8 -3 14 12 10 18 33 7 32 -20 -3 -23 3 -11
18 12 15 12 16 -3 11 -12 -5 -16 -1 -13 18 1 13 -3 24 -9 24 -6 0 -4 5 4 10
11 7 11 10 2 10 -7 0 -11 4 -8 9 4 5 2 11 -4 13 -5 1 -11 15 -12 31 -1 15 -6
27 -11 27 -4 0 -5 5 -2 10 3 6 0 10 -7 10 -9 0 -9 3 2 10 12 8 12 10 1 10 -11
0 -11 3 -1 15 10 12 10 16 -1 20 -8 3 -15 22 -16 42 -1 20 -7 39 -12 42 -6 4
-8 21 -6 39 3 22 1 30 -7 26 -7 -5 -9 -2 -5 8 3 9 0 21 -6 28 -9 10 -9 11 1 6
6 -4 12 -2 12 3 0 6 -6 11 -12 11 -9 0 -8 4 2 10 9 6 10 10 3 10 -8 0 -11 13
-9 34 1 19 -1 33 -5 30 -4 -2 -10 3 -13 12 -4 10 -2 13 7 8 8 -5 7 -2 -2 9
-11 14 -11 17 0 17 12 0 12 2 0 9 -7 5 -14 26 -15 47 0 22 -5 43 -11 47 -6 6
-5 10 3 14 10 4 9 9 -5 20 -10 8 -12 12 -6 8 9 -4 11 -1 7 9 -3 9 -11 16 -18
16 -7 0 -6 4 3 9 9 6 10 11 2 15 -6 4 -8 13 -4 19 12 19 12 38 0 30 -6 -4 -8
0 -4 10 3 8 -1 21 -9 28 -11 9 -12 15 -2 26 9 11 9 16 0 22 -7 4 -10 15 -7 23
4 9 2 19 -4 22 -6 4 -8 13 -4 21 3 9 -1 23 -8 32 -14 17 -14 20 3 41 7 8 7 12
0 12 -6 0 -9 11 -7 25 1 14 -1 25 -4 25 -4 0 -6 19 -6 43 0 23 -3 48 -8 55 -6
8 -5 12 4 13 8 0 5 4 -6 9 -11 5 -14 9 -6 9 11 1 11 4 0 17 -17 21 -20 44 -6
44 8 0 8 3 2 8 -13 9 -17 62 -5 62 6 0 1 9 -10 20 -12 12 -18 25 -15 29 2 5
-2 12 -11 15 -13 5 -14 9 -4 21 10 13 9 15 -10 15 -17 0 -21 4 -17 20 3 13 0
20 -10 20 -8 0 -12 4 -8 9 3 5 -1 16 -9 24 -8 8 -12 18 -8 21 3 4 -1 4 -11 0
-15 -6 -22 4 -18 28 0 4 -6 5 -14 2 -9 -4 -18 1 -21 11 -5 13 -9 14 -15 3 -7
-10 -9 -10 -9 2 0 13 -1 13 -10 0 -8 -12 -10 -12 -10 5 0 15 -2 17 -9 6 -7
-10 -11 -9 -23 8 -8 11 -18 18 -21 14 -7 -6 -11 37 -7 66 1 9 -4 12 -16 7 -14
-5 -15 -4 -5 8 9 10 9 16 1 21 -6 4 -9 13 -6 21 3 8 -1 17 -8 20 -8 3 -12 14
-9 25 3 10 0 19 -6 19 -6 0 -11 9 -11 21 0 12 -4 17 -11 13 -8 -5 -8 -1 0 14
8 15 8 23 -1 28 -7 5 -8 2 -3 -7 6 -11 5 -12 -5 -2 -10 10 -11 15 -1 27 9 11
9 16 0 22 -8 5 -10 3 -4 -7 6 -10 5 -11 -4 -3 -6 6 -13 24 -14 41 -1 17 -6 29
-11 25 -5 -3 -7 2 -3 11 3 10 2 17 -4 17 -6 0 -7 5 -4 10 3 6 2 10 -3 10 -6 0
-13 7 -16 16 -3 8 -2 12 4 9 6 -3 10 -1 10 4 0 6 -7 11 -15 11 -11 0 -12 5 -5
26 6 14 7 23 2 21 -4 -3 -13 1 -20 9 -7 8 -8 14 -2 14 5 0 2 9 -7 19 -9 11
-18 34 -20 52 -2 18 -9 37 -16 41 -9 6 -9 8 2 8 9 0 6 7 -9 20 -13 11 -20 20
-15 20 4 0 1 8 -6 17 -10 11 -10 14 -1 9 17 -10 15 -1 -4 18 -9 9 -11 16 -4
16 6 0 8 5 5 10 -4 6 -10 8 -15 5 -4 -3 -6 4 -3 15 3 11 0 20 -6 20 -6 0 -11
9 -11 20 0 11 -6 20 -12 20 -9 0 -8 4 2 10 11 7 11 10 2 10 -7 0 -10 5 -7 10
3 6 2 10 -4 10 -6 0 -7 7 -4 17 5 12 3 14 -7 8 -10 -6 -12 -4 -7 8 3 9 -1 23
-9 32 -11 11 -12 15 -3 15 7 0 5 6 -6 14 -11 8 -16 19 -12 30 4 9 3 16 -1 16
-5 0 -9 11 -10 25 -3 47 -5 54 -16 52 -6 -1 -10 4 -8 11 1 6 -3 12 -9 12 -6 0
-9 9 -6 20 3 11 1 20 -5 20 -5 0 -7 4 -4 9 3 5 -2 12 -12 16 -16 6 -15 8 3 21
19 15 19 15 1 12 -15 -2 -20 4 -23 32 -3 19 -9 39 -14 44 -5 6 -9 15 -9 20 0
6 5 4 10 -4 6 -9 10 -10 10 -3 0 6 -4 15 -10 18 -5 3 -10 24 -10 46 0 21 -4
39 -10 39 -5 0 -6 -8 -3 -17 5 -13 3 -13 -13 3 -19 19 -19 19 1 25 20 5 20 5
-1 11 -11 3 -21 12 -21 21 0 9 5 13 11 10 6 -4 5 0 -1 8 -10 12 -10 18 0 29
10 10 9 11 -2 5 -11 -6 -13 -2 -9 19 5 27 -6 44 -17 26 -10 -16 -25 -12 -19 5
4 8 1 15 -6 15 -10 0 -10 3 0 15 10 12 10 15 -1 15 -11 0 -11 2 1 10 12 8 12
10 1 10 -9 0 -12 9 -9 29 4 26 2 28 -13 21 -12 -7 -19 -5 -23 6 -3 8 -2 13 3
10 5 -4 7 3 4 14 -3 11 -13 20 -22 21 -10 0 -11 2 -3 6 15 6 16 33 1 33 -5 0
-7 -5 -3 -12 4 -7 3 -8 -4 -4 -6 4 -8 14 -5 23 5 12 3 14 -7 8 -10 -6 -12 -4
-7 7 3 10 -1 18 -13 21 -14 4 -17 11 -13 27 5 18 3 21 -8 15 -12 -8 -12 -6 -1
8 12 14 11 16 -7 12 -12 -2 -21 0 -21 6 0 5 7 9 15 9 8 0 15 5 15 11 0 5 -4 7
-10 4 -14 -9 -35 7 -36 27 -1 10 2 15 7 12 5 -3 6 2 3 10 -3 8 -12 12 -20 9
-9 -3 -14 1 -14 12 0 10 5 13 12 9 7 -4 8 -3 4 4 -4 6 -13 9 -21 5 -16 -6 -21
12 -5 22 6 3 5 15 -2 30 -6 14 -13 23 -15 21 -3 -2 0 -15 7 -28 11 -22 11 -22
-5 -3 -9 11 -21 19 -27 17 -7 -2 -6 3 2 12 10 13 10 16 0 16 -8 0 -11 9 -8 25
5 22 3 23 -10 13 -13 -10 -14 -10 -8 0 4 6 2 12 -3 12 -6 0 -11 5 -11 10 0 6
5 9 11 8 6 -2 14 4 16 12 4 13 3 13 -6 0 -9 -13 -15 -8 -13 11 1 4 -6 6 -16 5
-10 -1 -17 6 -17 19 0 12 -6 19 -15 17 -12 -3 -13 -1 -2 9 13 14 16 30 5 28
-5 -1 -15 -1 -23 0 -13 1 -13 2 0 11 12 8 12 10 -5 10 -17 0 -17 2 -5 10 13 8
13 10 -2 10 -9 0 -20 5 -24 12 -4 6 -3 8 3 5 5 -3 10 0 10 7 0 8 -6 12 -13 9
-7 -2 -40 24 -75 59 -34 35 -59 56 -55 48 5 -9 2 -8 -7 3 -8 9 -22 17 -31 17
-10 0 -15 4 -12 9 3 5 -5 8 -18 7 -13 0 -22 -4 -19 -8 2 -5 -1 -8 -6 -8 -6 0
-11 5 -11 10 0 6 -5 10 -11 10 -5 0 -8 -3 -5 -8 2 -4 -7 -12 -20 -19 -18 -8
-22 -8 -17 0 5 9 3 9 -8 0 -16 -13 -44 -12 -56 2 -4 4 -2 5 6 0 9 -5 12 -4 8
3 -4 5 -17 8 -29 4 -14 -3 -19 -2 -14 6 7 11 -11 17 -41 13 -7 -1 -13 3 -13 9
0 6 5 8 10 5 6 -3 10 -2 10 4 0 6 -11 13 -25 17 -14 3 -23 9 -21 13 3 4 -7 8
-22 9 -15 1 -28 7 -30 12 -2 6 -17 10 -33 10 -17 0 -28 4 -25 9 7 11 -12 9
-39 -6 -11 -5 -26 -8 -34 -5 -8 3 -11 0 -7 -7 5 -7 1 -9 -8 -5 -9 3 -16 1 -16
-6 0 -6 -5 -8 -12 -4 -7 5 -9 2 -5 -9 4 -11 2 -14 -8 -11 -8 3 -16 -4 -20 -17
-6 -17 -9 -19 -16 -8 -7 12 -9 11 -10 -1 -2 -42 -12 -75 -22 -82 -9 -5 -8 -8
3 -8 9 0 11 -3 4 -8 -5 -4 -10 -24 -10 -45 1 -20 -3 -37 -9 -37 -5 0 -4 -4 4
-9 11 -7 10 -11 -5 -20 -11 -6 -14 -11 -8 -11 7 0 14 -9 17 -20 3 -11 1 -18
-4 -14 -5 3 -9 -2 -9 -11 0 -10 -5 -14 -12 -10 -7 4 -5 0 5 -8 17 -14 24 -33
8 -23 -4 3 -8 -2 -8 -12 0 -36 -3 -43 -15 -36 -9 6 -9 3 0 -9 8 -9 11 -21 8
-26 -4 -5 -1 -13 5 -17 8 -5 9 -3 4 6 -5 9 -4 11 4 6 7 -5 9 -12 3 -19 -10
-13 -12 -47 -3 -47 9 0 6 -80 -4 -109 -5 -17 -4 -22 5 -16 7 4 4 -4 -5 -19
-16 -24 -16 -26 -1 -20 12 5 15 2 10 -10 -3 -9 -9 -14 -14 -11 -4 2 -5 -7 -2
-21 3 -19 7 -22 13 -12 5 7 9 8 9 2 0 -5 -5 -15 -12 -22 -7 -7 -9 -12 -5 -12
4 0 2 -10 -4 -22 -11 -21 -11 -22 4 -9 18 14 20 8 8 -24 -5 -12 -4 -26 3 -34
9 -12 7 -13 -8 -8 -16 6 -17 5 -6 -8 7 -8 9 -15 5 -15 -4 0 -3 -6 2 -12 6 -7
8 -22 6 -33 -2 -11 -4 -28 -4 -37 0 -10 -5 -18 -11 -18 -6 0 -6 -6 2 -15 10
-12 10 -15 -1 -15 -10 0 -10 -3 -2 -11 9 -9 8 -15 -3 -26 -10 -11 -12 -19 -4
-27 5 -7 7 -16 3 -19 -9 -10 -12 -67 -2 -62 8 6 2 -42 -8 -59 -4 -6 1 -5 10 3
21 17 22 8 1 -13 -14 -15 -14 -16 2 -16 16 0 16 -1 -2 -16 -10 -8 -13 -13 -6
-9 13 7 12 -21 -2 -44 -6 -9 -5 -12 1 -8 6 4 13 -2 16 -13 3 -11 1 -18 -3 -15
-5 3 -11 1 -15 -5 -3 -5 -2 -10 3 -10 6 0 10 -22 9 -50 0 -32 -4 -47 -11 -43
-6 4 -3 -3 8 -15 17 -20 18 -22 2 -28 -13 -5 -15 -9 -5 -15 10 -6 10 -11 -2
-25 -9 -11 -9 -15 -1 -10 14 8 12 -19 -2 -43 -7 -11 -5 -13 9 -8 17 7 17 6 0
-19 -9 -15 -12 -24 -7 -20 6 4 10 -2 9 -14 -1 -11 -5 -20 -10 -20 -5 0 -4 -7
3 -15 10 -12 10 -15 0 -15 -10 0 -10 -4 1 -16 10 -13 10 -17 -2 -25 -8 -5 -9
-9 -3 -9 6 0 11 -7 11 -15 0 -8 -5 -15 -10 -15 -5 0 -4 -6 2 -14 9 -11 9 -16
0 -21 -8 -6 -7 -10 2 -16 12 -7 12 -9 0 -9 -9 0 -10 -4 -4 -12 11 -15 11 -48
-1 -66 -4 -7 -3 -19 4 -27 7 -8 8 -15 3 -15 -6 0 -9 -24 -9 -52 1 -38 -3 -55
-14 -60 -12 -5 -12 -7 3 -7 20 -1 23 -17 5 -24 -9 -4 -9 -6 1 -6 11 -1 10 -5
-5 -17 -10 -8 -13 -13 -6 -9 10 5 14 -2 14 -25 0 -3 -3 -16 -7 -29 -4 -14 -3
-21 2 -18 5 4 10 0 10 -8 0 -8 -4 -12 -8 -9 -5 3 -7 -15 -5 -40 1 -25 -1 -43
-6 -40 -4 3 -8 0 -8 -5 0 -6 6 -11 13 -11 8 0 7 -4 -3 -10 -13 -9 -13 -10 0
-10 13 0 13 -1 0 -10 -13 -8 -13 -10 -1 -10 11 0 12 -3 4 -11 -8 -8 -8 -20 -3
-35 5 -13 6 -26 1 -28 -4 -3 -7 -24 -6 -46 2 -35 0 -39 -13 -28 -12 10 -11 6
2 -14 18 -27 18 -28 0 -29 -18 0 -18 -1 1 -9 11 -5 14 -9 6 -9 -10 -1 -11 -4
-2 -15 9 -11 9 -16 0 -22 -8 -5 -10 -3 -4 7 7 12 5 12 -6 1 -9 -8 -10 -15 -4
-20 16 -11 12 -58 -5 -54 -10 2 -8 -3 5 -19 11 -12 14 -19 6 -14 -9 5 -12 3
-9 -6 3 -8 1 -22 -3 -31 -6 -11 -4 -22 7 -32 10 -11 11 -16 3 -16 -7 0 -9 -3
-6 -7 4 -3 1 -13 -6 -21 -6 -9 -7 -13 -1 -10 6 4 10 -3 10 -17 0 -13 -3 -22
-7 -19 -4 2 -10 0 -14 -6 -3 -5 0 -10 7 -10 10 0 9 -3 -2 -9 -8 -6 -18 -7 -22
-5 -4 3 -8 1 -8 -5 0 -13 -55 -42 -64 -34 -3 4 -13 -2 -22 -13 -8 -10 -13 -14
-10 -7 4 6 2 15 -4 18 -6 4 -10 3 -9 -2 3 -19 -2 -33 -12 -33 -5 0 -7 6 -4 13
4 6 1 5 -7 -4 -13 -15 -44 -32 -63 -34 -18 -1 -35 -16 -30 -26 4 -5 3 -10 -2
-10 -4 -1 -19 -3 -33 -6 -14 -2 -32 -4 -42 -4 -9 0 -24 -9 -33 -19 -10 -11
-22 -17 -26 -14 -5 3 -9 0 -9 -6 0 -6 -4 -9 -9 -6 -5 3 -14 -1 -21 -10 -7 -8
-19 -13 -27 -10 -7 3 -13 -1 -13 -8 0 -8 -7 -17 -16 -20 -10 -4 -13 -2 -9 7 4
6 0 4 -8 -6 -8 -10 -21 -16 -28 -15 -8 2 -13 -2 -12 -9 1 -6 -5 -17 -14 -25
-12 -9 -15 -9 -9 0 10 17 -2 15 -21 -3 -8 -8 -19 -12 -25 -9 -7 4 -8 2 -4 -4
4 -7 -4 -17 -21 -24 -15 -7 -31 -16 -34 -21 -3 -5 -10 -9 -15 -10 -5 -1 -8 -6
-6 -11 2 -5 -4 -3 -13 4 -13 11 -15 10 -9 -4 5 -14 -4 -20 -27 -18 -4 1 -20
-14 -37 -33 -20 -22 -27 -35 -19 -39 7 -2 4 -5 -5 -5 -10 -1 -18 -6 -18 -12 0
-5 -4 -8 -9 -4 -6 3 -8 -4 -6 -15 2 -11 0 -18 -6 -15 -5 4 -9 -1 -9 -10 0 -9
-4 -13 -10 -10 -5 3 -10 -1 -10 -9 0 -8 -8 -20 -17 -25 -10 -6 -15 -11 -11
-11 3 0 -7 -14 -23 -31 -16 -17 -29 -38 -29 -45 0 -8 -7 -17 -15 -20 -8 -4
-13 -10 -10 -14 7 -11 -5 -41 -15 -35 -4 2 -5 -7 -2 -22 3 -15 1 -23 -4 -20
-6 3 -10 -3 -10 -14 0 -10 4 -19 8 -19 4 0 5 -7 2 -15 -4 -8 -9 -13 -14 -10
-4 2 -5 -7 -2 -20 2 -14 8 -28 13 -31 5 -3 4 -14 -2 -26 -8 -15 -8 -19 0 -14
6 4 11 0 11 -11 0 -11 6 -25 13 -32 9 -11 9 -12 0 -7 -9 5 -11 2 -7 -8 3 -9
10 -13 16 -10 5 3 12 -3 15 -15 3 -12 12 -21 19 -21 8 0 17 -7 20 -15 4 -8 14
-15 24 -15 11 0 22 -5 25 -10 4 -6 11 -8 16 -5 5 4 12 0 15 -9 3 -8 14 -13 25
-11 11 2 17 0 14 -5 -10 -16 20 -17 39 -1 11 9 16 10 12 4 -4 -8 -1 -13 9 -13
10 0 13 5 9 13 -5 7 0 6 11 -3 15 -12 17 -12 10 -1 -6 11 -4 13 8 8 9 -3 19
-1 23 5 5 7 2 8 -6 3 -9 -5 -11 -4 -6 3 4 7 14 12 23 12 9 0 13 6 10 14 -4 9
-1 13 6 10 9 -3 12 14 13 60 0 42 -3 64 -10 63 -6 -1 -10 4 -9 11 2 6 -4 12
-12 12 -8 0 -15 3 -15 8 0 4 -9 13 -21 20 -12 8 -18 9 -14 3 3 -6 1 -11 -4
-11 -6 0 -11 6 -11 13 0 9 -2 9 -8 0 -10 -15 -59 -11 -75 7 -10 10 -9 11 3 5
8 -4 5 2 -7 13 -18 18 -20 27 -13 51 4 16 5 32 2 36 -4 3 0 10 8 15 12 8 12
10 1 10 -11 0 -11 3 0 17 8 9 13 18 12 20 -7 9 -2 23 7 18 6 -3 7 1 4 9 -3 9
-1 16 5 16 6 0 11 5 11 11 0 5 -4 7 -10 4 -5 -3 -10 -3 -10 0 0 3 13 11 30 16
16 6 28 14 25 19 -2 4 9 18 25 30 16 12 27 26 24 31 -3 5 2 6 10 3 9 -4 16 -1
16 6 0 7 7 10 15 6 8 -3 14 -2 14 2 -3 18 2 32 12 32 5 0 7 -6 3 -12 -5 -9 -3
-9 9 1 9 7 14 18 10 25 -4 6 1 5 11 -3 9 -8 16 -10 15 -5 -4 21 2 26 16 14 13
-11 14 -10 9 6 -4 10 -4 16 1 12 4 -4 15 1 24 10 9 10 12 12 8 6 -13 -19 30
-5 45 15 12 15 11 15 -7 1 -18 -14 -19 -14 -7 2 7 9 22 15 33 13 10 -2 19 0
19 6 0 5 9 9 20 9 11 0 20 5 20 11 0 5 4 8 8 5 5 -3 20 1 34 8 20 11 29 11 39
2 9 -8 10 -8 5 2 -6 11 5 17 27 13 4 0 7 5 7 12 0 8 3 7 10 -3 8 -12 10 -12
16 3 3 9 10 17 16 17 5 0 7 -4 4 -8 -3 -5 1 -9 9 -9 8 0 12 4 9 9 -3 4 3 8 13
8 11 0 25 6 32 13 11 10 13 9 8 -6 -6 -17 -5 -17 15 -2 25 17 42 20 33 5 -3
-6 1 -7 9 -4 9 3 13 11 9 18 -4 6 1 5 10 -3 14 -11 17 -11 17 0 0 11 2 11 10
-1 8 -12 10 -12 10 -1 0 10 3 11 13 2 8 -6 17 -8 20 -4 4 3 7 -1 7 -10 0 -8 6
-18 13 -20 8 -4 7 -6 -3 -6 -17 -1 -22 -41 -5 -41 5 0 3 -5 -5 -10 -12 -8 -12
-10 -1 -10 11 0 9 -5 -5 -21 -12 -13 -14 -19 -5 -17 7 2 16 -3 19 -11 2 -8 0
-11 -6 -7 -15 9 -22 -19 -9 -34 9 -10 9 -12 -4 -7 -9 3 -16 0 -16 -9 0 -7 5
-10 11 -7 6 4 5 -1 -3 -10 -7 -9 -10 -17 -6 -17 4 0 3 -6 -2 -12 -5 -7 -9 -30
-8 -50 0 -21 -3 -38 -7 -38 -4 0 -5 -7 -2 -15 4 -9 0 -15 -7 -15 -11 0 -11 -3
1 -10 13 -9 13 -10 0 -10 -13 0 -13 -1 0 -10 8 -5 10 -10 4 -10 -13 0 -25 -59
-16 -74 9 -15 9 -57 0 -62 -5 -3 -6 -10 -3 -15 4 -5 0 -9 -7 -9 -10 0 -10 -2
1 -9 9 -6 10 -11 2 -15 -6 -4 -11 -12 -11 -17 0 -6 6 -7 13 -3 8 6 8 3 -2 -9
-7 -9 -11 -24 -7 -32 3 -8 1 -15 -4 -15 -6 0 -6 -9 0 -25 5 -14 6 -25 2 -25
-4 0 -6 -21 -5 -47 0 -27 -4 -51 -10 -55 -9 -6 -9 -8 1 -8 6 0 12 -5 12 -11 0
-5 -6 -7 -12 -3 -10 6 -10 4 0 -8 9 -12 10 -18 2 -23 -8 -5 -8 -11 -1 -19 7
-9 7 -16 0 -23 -7 -7 -8 -17 -1 -29 10 -21 5 -47 -8 -39 -10 6 -7 -21 3 -31
11 -11 8 -26 -3 -19 -15 9 -12 -2 5 -19 16 -15 10 -50 -7 -40 -6 4 -6 -1 1
-13 6 -11 7 -24 3 -28 -4 -5 -2 -5 4 -2 13 8 27 -17 29 -50 0 -12 5 -26 9 -30
5 -5 6 -2 1 7 -4 8 1 6 12 -5 16 -15 18 -23 9 -34 -8 -11 -8 -13 0 -8 6 3 20
0 30 -7 12 -9 25 -11 35 -5 9 4 19 5 23 2 12 -12 36 -12 36 0 0 7 4 6 9 -2 8
-12 12 -12 25 -2 13 11 16 11 16 0 1 -8 8 -2 16 14 8 15 17 27 20 27 3 0 2 -5
-2 -12 -4 -7 -3 -8 4 -4 6 4 9 13 6 20 -3 8 3 17 14 20 13 5 18 15 17 36 -1
17 0 28 3 25 3 -3 11 0 18 6 10 8 11 16 3 31 -7 12 -7 18 -1 14 12 -7 26 25
15 33 -12 9 -15 33 -3 26 7 -4 9 6 7 29 -2 20 -1 36 2 36 3 0 7 11 7 25 1 16
-2 23 -10 18 -6 -3 -2 3 8 15 14 17 16 22 5 22 -10 1 -8 4 4 11 17 10 17 13 3
34 -14 21 -14 24 1 37 10 8 14 8 10 1 -4 -6 -3 -14 2 -17 10 -7 9 20 -2 30 -4
4 -2 13 4 21 9 10 8 13 -2 13 -12 0 -12 2 -1 9 8 4 13 11 13 15 -4 25 0 36 11
30 7 -4 8 -3 4 5 -4 6 -11 9 -15 7 -4 -3 -7 4 -6 15 1 11 8 25 16 30 12 7 12
9 -1 9 -13 0 -13 1 0 10 13 9 13 10 0 10 -13 0 -13 1 0 10 8 5 11 10 6 10 -5
0 -3 6 3 14 10 11 8 17 -6 25 -17 10 -17 10 0 11 10 0 15 5 12 11 -9 14 -12
88 -4 83 4 -2 10 3 13 12 3 8 2 13 -3 10 -5 -3 -12 1 -15 10 -3 8 -2 13 3 10
5 -3 11 1 15 9 3 8 1 17 -4 20 -7 4 -6 13 0 25 7 13 6 20 -3 23 -9 3 -9 7 2
20 9 11 10 17 2 17 -6 0 -11 5 -11 11 0 5 4 8 8 5 4 -2 8 4 8 14 0 10 -3 17
-6 15 -3 -2 -6 5 -6 15 0 10 4 16 8 14 4 -3 6 9 4 25 -2 17 2 32 8 35 6 2 5 5
-3 5 -11 1 -10 5 5 17 10 8 13 13 7 9 -16 -8 -18 21 -3 30 8 5 7 11 -1 21 -9
11 -8 14 2 14 11 0 11 2 -1 10 -8 5 -10 10 -3 10 12 0 12 24 0 36 -4 4 -2 13
4 21 9 10 8 13 -2 13 -11 0 -11 2 1 10 8 5 12 10 8 10 -4 0 -2 14 4 30 8 25
13 28 24 19 11 -9 14 -8 14 4 0 10 7 15 20 12 11 -2 20 1 20 6 0 6 5 7 10 4 6
-3 10 -1 10 5 0 6 4 9 9 5 5 -3 13 0 16 6 4 5 14 8 22 5 8 -3 11 -1 8 4 -3 6
1 10 10 10 10 0 14 -5 10 -12 -4 -7 0 -5 9 6 8 10 19 15 25 11 6 -3 11 -1 11
5 0 6 4 9 9 5 5 -3 12 -1 16 5 4 7 14 6 28 -2 19 -10 20 -9 9 4 -10 13 -9 15
14 10 21 -4 25 -2 19 9 -7 12 -6 12 7 1 12 -9 18 -10 23 -2 4 6 12 9 18 7 7
-2 21 3 31 12 16 13 18 13 12 1 -5 -9 -2 -9 7 2 11 14 16 15 27 5 8 -8 11 -8
7 -1 -4 7 0 15 9 18 23 9 26 8 18 -6 -6 -10 -5 -10 7 -1 8 6 26 13 39 15 14 2
31 7 38 11 6 5 12 5 12 0 0 -4 4 -2 9 6 5 7 26 15 47 18 21 2 45 9 53 16 12 9
13 9 7 0 -4 -7 -2 -13 3 -13 6 0 11 5 11 11 0 6 6 9 14 6 8 -3 16 -1 18 5 2 6
18 11 36 11 18 0 29 4 25 10 -4 6 0 8 10 4 10 -3 17 -2 17 4 0 6 9 5 23 -2 19
-10 20 -10 10 2 -10 12 -2 14 45 12 31 -1 63 3 70 9 8 7 12 7 12 -2 0 -9 3
-10 13 -1 8 6 16 8 20 5 3 -3 15 -1 26 5 18 10 20 9 14 -6 -5 -15 -3 -16 8 -5
16 15 43 16 33 1 -4 -8 0 -8 15 0 12 7 21 8 21 2 0 -5 8 -17 17 -27 18 -18 28
-48 12 -38 -5 3 -9 0 -9 -5 0 -6 6 -11 13 -11 9 0 8 -3 -2 -9 -11 -7 -11 -9 0
-14 10 -4 10 -6 2 -6 -7 -1 -13 -6 -13 -12 0 -5 6 -7 13 -3 9 6 9 5 0 -8 -7
-8 -10 -17 -7 -21 10 -10 11 -66 0 -60 -6 4 -6 -1 -2 -13 12 -30 15 -84 4 -84
-5 0 -6 5 -2 12 5 7 3 8 -6 3 -10 -6 -9 -11 5 -22 14 -9 15 -13 4 -13 -12 0
-12 -2 1 -10 10 -6 11 -10 3 -10 -7 0 -13 -5 -13 -11 0 -5 6 -7 13 -3 9 6 9 5
0 -7 -10 -12 -10 -18 -1 -27 8 -8 9 -12 1 -12 -12 0 -12 -25 0 -36 4 -4 7 -12
7 -18 0 -6 -5 -4 -11 4 -9 12 -10 11 -6 -7 3 -12 0 -24 -7 -27 -7 -3 -6 -5 3
-5 11 -1 11 -4 1 -16 -10 -12 -9 -15 4 -15 16 0 16 -1 1 -16 -11 -12 -13 -20
-5 -29 8 -10 8 -15 -1 -20 -8 -6 -7 -10 2 -16 11 -7 11 -9 -1 -9 -13 0 -13 -1
0 -10 12 -8 12 -10 -5 -11 l-20 0 20 -9 c11 -5 14 -9 8 -9 -15 -1 -13 -22 2
-33 6 -5 5 -8 -2 -8 -7 0 -13 -5 -13 -11 0 -5 6 -7 13 -3 9 6 9 4 -1 -8 -10
-13 -10 -17 0 -21 8 -4 9 -6 1 -6 -6 -1 -9 -9 -6 -20 3 -10 0 -22 -6 -25 -14
-9 -2 -38 13 -29 8 4 8 2 -1 -7 -6 -7 -9 -19 -6 -26 3 -8 -1 -22 -8 -31 -8 -9
-9 -14 -3 -10 7 4 15 0 18 -9 4 -9 2 -13 -5 -8 -7 4 -10 1 -7 -7 3 -8 1 -22
-3 -31 -6 -11 -4 -22 7 -32 8 -9 12 -16 7 -16 -5 0 -9 -9 -10 -20 -1 -13 2
-18 10 -14 8 5 8 3 0 -7 -16 -16 -17 -33 -1 -23 7 5 8 3 2 -7 -14 -22 -14 -70
-1 -62 9 5 9 3 1 -8 -6 -8 -10 -38 -10 -66 1 -30 -3 -53 -9 -53 -5 0 -3 -5 5
-10 8 -5 11 -10 5 -10 -11 0 -12 -166 -1 -177 3 -4 -2 -15 -11 -25 -14 -15
-15 -21 -4 -27 9 -6 10 -11 2 -15 -6 -4 -11 -12 -11 -17 0 -6 5 -7 11 -3 7 4
6 -2 -1 -17 -10 -19 -10 -24 0 -27 8 -3 5 -10 -11 -19 -13 -8 -16 -12 -7 -9
13 4 16 0 13 -16 -3 -12 -10 -25 -17 -30 -9 -5 -9 -8 -2 -8 7 0 15 -7 18 -16
3 -8 2 -13 -3 -10 -5 3 -12 -1 -15 -10 -5 -12 -2 -15 11 -10 15 6 15 4 -2 -14
-13 -14 -14 -20 -5 -20 11 0 11 -3 2 -12 -16 -16 -15 -31 1 -22 9 6 9 4 1 -7
-6 -8 -11 -38 -10 -67 1 -39 -3 -52 -13 -52 -11 0 -9 -4 5 -15 13 -10 14 -14
5 -15 -11 0 -11 -3 0 -17 9 -11 10 -14 2 -9 -9 5 -12 -1 -9 -23 2 -17 0 -31
-5 -31 -4 0 -6 -12 -3 -26 3 -14 1 -23 -5 -20 -5 4 -7 -3 -3 -16 4 -16 2 -19
-9 -13 -11 6 -12 5 -1 -6 14 -16 16 -33 2 -24 -6 3 -7 -1 -4 -9 4 -10 1 -16
-7 -16 -12 0 -12 -2 -1 -9 11 -7 10 -9 -3 -14 -13 -6 -14 -11 -4 -28 6 -12 7
-19 2 -16 -6 4 -10 -10 -11 -31 -1 -20 -6 -38 -11 -40 -7 -2 -6 -13 0 -30 6
-15 7 -23 3 -19 -4 3 -13 -5 -21 -19 -10 -20 -10 -30 -2 -40 9 -11 6 -16 -12
-23 -17 -7 -19 -10 -7 -10 14 -1 16 -5 8 -25 -5 -13 -6 -27 -3 -30 4 -3 2 -6
-4 -6 -5 0 -9 -13 -8 -30 1 -16 -3 -30 -8 -30 -5 0 -4 -7 3 -15 8 -10 9 -19 3
-27 -17 -23 -24 -50 -10 -42 9 6 9 5 0 -8 -7 -8 -10 -18 -6 -21 3 -4 1 -7 -6
-7 -7 0 -9 -5 -6 -10 4 -6 1 -18 -7 -27 -11 -14 -11 -16 2 -8 12 7 13 6 4 -6
-6 -8 -10 -24 -9 -37 1 -12 -2 -22 -7 -22 -5 0 -6 -5 -3 -11 4 -5 -1 -19 -11
-30 -9 -10 -14 -22 -11 -26 4 -3 7 -1 7 5 0 7 5 12 10 12 6 0 5 -8 -2 -19 -7
-11 -15 -18 -18 -16 -4 2 -7 -2 -7 -10 0 -8 5 -11 11 -8 5 4 0 -7 -12 -24 -15
-21 -19 -34 -12 -38 8 -5 8 -11 1 -19 -6 -7 -8 -15 -5 -19 3 -3 -5 -3 -18 0
-15 3 -19 2 -10 -4 10 -8 10 -16 1 -39 -7 -16 -12 -32 -11 -36 1 -5 -2 -8 -7
-8 -5 0 -7 -10 -4 -22 4 -19 3 -20 -6 -8 -8 12 -11 8 -11 -18 0 -18 -4 -31 -8
-28 -4 2 -9 -4 -9 -15 -1 -12 3 -17 10 -13 7 3 5 0 -3 -8 -9 -7 -15 -20 -15
-28 1 -8 -3 -21 -8 -27 -5 -7 -6 -13 -2 -13 5 0 1 -8 -8 -18 -10 -10 -14 -22
-10 -25 3 -4 1 -7 -7 -7 -10 0 -10 -3 -1 -14 10 -12 8 -14 -11 -9 -18 4 -20 3
-8 -6 10 -7 11 -14 5 -18 -6 -5 -10 -18 -9 -31 1 -19 -1 -20 -14 -10 -13 11
-14 10 -4 -9 9 -16 9 -24 0 -29 -7 -5 -8 -3 -3 6 5 8 4 11 -3 6 -6 -3 -9 -15
-7 -26 2 -10 -3 -24 -11 -31 -12 -9 -12 -15 -2 -27 10 -13 10 -14 1 -8 -8 4
-13 1 -13 -9 0 -10 -5 -13 -12 -9 -7 4 -8 3 -4 -4 4 -7 -2 -21 -12 -33 -11
-11 -18 -29 -15 -40 3 -11 -1 -21 -10 -25 -8 -3 -13 -13 -10 -23 3 -12 -6 -29
-24 -45 -22 -21 -24 -25 -8 -20 18 6 18 5 -2 -15 -13 -12 -23 -30 -23 -39 0
-10 -7 -27 -16 -38 -8 -10 -12 -13 -8 -5 5 10 3 12 -5 7 -9 -6 -9 -11 -1 -21
8 -10 5 -18 -13 -32 -13 -10 -22 -24 -19 -31 2 -6 -2 -12 -8 -12 -7 0 -10 -7
-6 -16 3 -8 2 -13 -2 -10 -5 3 -16 -8 -26 -25 -12 -21 -14 -29 -4 -29 7 0 2
-7 -10 -16 -12 -8 -22 -22 -22 -31 0 -10 -6 -13 -17 -9 -15 5 -15 4 1 -9 19
-14 18 -15 -5 -24 -13 -5 -18 -10 -10 -10 11 -1 10 -4 -4 -14 -11 -9 -15 -19
-10 -27 5 -9 4 -11 -3 -6 -7 4 -12 2 -12 -4 0 -6 -5 -8 -12 -4 -8 5 -7 0 2
-11 11 -14 12 -17 1 -11 -9 6 -12 5 -9 -5 3 -8 -7 -22 -21 -33 -20 -14 -21
-17 -6 -12 17 5 16 3 -5 -14 -21 -17 -22 -19 -5 -14 18 5 18 4 2 -6 -9 -6 -23
-8 -30 -5 -6 4 -3 -1 7 -9 19 -16 19 -16 -4 -16 -13 0 -20 -3 -17 -7 4 -3 -1
-12 -11 -20 -10 -9 -11 -11 -2 -7 13 7 13 6 0 -11 -8 -10 -13 -20 -12 -22 2
-3 0 -8 -4 -11 -4 -4 -4 -1 0 6 4 6 2 12 -3 12 -6 0 -11 -7 -11 -16 0 -9 -5
-12 -12 -8 -10 6 -10 4 0 -8 11 -13 10 -16 -5 -14 -12 0 -17 -5 -17 -17 2 -15
-1 -16 -14 -5 -13 11 -14 11 -7 -1 6 -11 4 -13 -10 -7 -15 5 -16 4 -5 -9 10
-12 7 -17 -16 -27 -31 -14 -45 -28 -38 -39 2 -4 -4 -5 -14 -2 -11 2 -24 -3
-32 -14 -12 -15 -12 -16 0 -5 8 6 19 12 25 12 5 0 -3 -9 -20 -20 -16 -11 -35
-18 -42 -15 -7 2 -10 -2 -6 -11 3 -8 2 -14 -3 -13 -23 4 -35 -2 -28 -14 5 -8
3 -8 -9 2 -14 11 -18 11 -23 -3 -3 -9 -13 -16 -21 -16 -8 0 -11 -5 -7 -12 5
-7 2 -9 -9 -5 -9 3 -18 1 -21 -6 -3 -9 -5 -9 -5 1 -1 6 -6 12 -12 12 -5 0 -7
-4 -4 -10 6 -10 -7 -14 -33 -11 -7 1 -15 -5 -18 -13 -3 -9 -10 -13 -15 -10 -6
3 -17 0 -26 -8 -12 -9 -15 -9 -9 -1 5 9 2 11 -8 7 -9 -3 -13 -11 -10 -16 4 -6
-2 -6 -14 1 -16 8 -21 7 -26 -4 -3 -8 -9 -15 -13 -14 -4 1 -10 0 -13 -1 -3 -1
-17 -3 -32 -4 -21 -1 -24 1 -16 11 8 10 7 12 -5 7 -8 -3 -18 -12 -21 -20 -3
-8 -11 -14 -18 -14 -9 0 -8 3 2 10 12 8 10 10 -10 10 -15 0 -32 -6 -39 -12
-11 -11 -13 -10 -9 2 5 12 -2 15 -31 14 -20 0 -39 4 -43 10 -5 8 -8 7 -8 -1 0
-7 -5 -13 -11 -13 -5 0 -7 5 -3 12 5 7 3 8 -7 2 -19 -11 -40 -14 -34 -4 3 4
-3 14 -12 21 -12 10 -14 10 -9 2 4 -7 2 -13 -3 -13 -6 0 -11 5 -11 12 0 6 -3
8 -7 5 -3 -4 -16 1 -27 10 -20 17 -20 17 -7 1 18 -24 9 -23 -19 2 -13 12 -30
18 -37 15 -8 -2 -11 0 -8 5 4 6 -5 10 -20 10 -14 0 -24 4 -21 8 2 4 -9 14 -25
21 -17 7 -28 16 -25 19 3 2 14 -1 23 -9 16 -12 17 -11 3 4 -9 9 -28 18 -42 19
-20 2 -24 6 -17 14 7 8 6 15 -2 20 -8 4 -9 3 -5 -4 4 -7 0 -12 -10 -12 -10 0
-14 3 -11 7 9 9 -33 53 -50 53 -7 0 -13 7 -13 15 0 9 -6 12 -16 8 -13 -5 -15
-1 -10 18 3 13 3 19 0 12 -4 -9 -11 -9 -29 -1 -14 6 -22 14 -20 18 3 5 -2 10
-10 14 -8 3 -15 13 -15 21 0 9 -4 13 -10 10 -5 -3 -10 1 -10 9 0 9 -7 16 -15
16 -9 0 -12 6 -8 17 4 10 2 14 -4 10 -6 -4 -14 0 -17 9 -3 9 -13 14 -20 11
-10 -4 -13 0 -11 14 3 16 0 19 -12 15 -13 -5 -14 -4 -4 8 9 11 8 15 -4 20 -11
4 -14 2 -9 -7 4 -7 3 -9 -2 -4 -9 9 -11 14 -13 47 0 11 -8 20 -16 20 -8 0 -14
3 -13 8 3 13 -13 52 -22 52 -10 0 -25 40 -21 54 1 5 -6 3 -15 -5 -15 -12 -17
-12 -12 1 3 8 -4 26 -16 40 -19 22 -19 23 -1 10 19 -14 19 -14 6 2 -7 10 -19
18 -26 18 -8 0 -11 8 -8 20 3 12 0 20 -7 20 -7 0 -10 6 -7 14 6 15 -27 48 -39
38 -4 -4 -4 -1 0 6 5 8 1 19 -10 28 -11 9 -13 13 -6 9 21 -11 13 9 -9 23 -13
8 -18 19 -15 29 4 11 2 14 -9 9 -8 -3 -14 -2 -14 2 4 25 -3 52 -11 47 -6 -3
-10 -1 -10 5 0 6 -5 8 -12 4 -8 -5 -8 -2 1 10 12 15 12 17 0 14 -8 -2 -13 3
-11 10 1 6 -2 12 -8 12 -6 0 -9 3 -9 8 3 20 -3 32 -17 32 -8 0 -12 5 -9 10 3
6 1 10 -6 10 -7 0 -10 11 -7 29 3 22 1 28 -11 23 -10 -4 -13 -1 -8 11 4 12 1
17 -9 17 -11 0 -15 6 -11 20 3 11 0 23 -5 27 -7 4 -8 1 -3 -8 5 -8 4 -11 0 -6
-5 4 -10 17 -12 29 -2 12 -9 26 -16 30 -6 4 -8 8 -3 8 4 0 1 12 -9 26 -11 18
-13 24 -4 19 9 -5 8 -1 -2 11 -9 10 -14 25 -11 33 3 10 0 12 -13 7 -14 -5 -16
-4 -6 7 9 11 8 17 -4 27 -8 7 -15 23 -15 36 0 13 -5 24 -11 24 -8 0 -8 4 0 14
10 11 8 16 -5 24 -10 5 -19 17 -20 26 -1 9 2 14 7 10 18 -11 9 8 -14 28 -12
11 -16 17 -9 13 6 -3 12 -1 12 4 0 6 -5 11 -11 11 -6 0 -9 9 -6 19 3 12 -1 22
-9 25 -8 3 -14 17 -14 31 0 18 -4 24 -12 19 -9 -5 -9 -2 1 9 7 10 9 17 3 17
-6 0 -13 18 -17 40 -4 22 -12 46 -19 53 -7 7 -12 20 -10 30 1 9 -4 17 -12 17
-9 0 -12 5 -9 10 4 6 12 8 18 4 7 -3 1 4 -13 15 -14 12 -20 21 -15 20 21 -3
30 2 18 9 -7 4 -14 18 -16 31 -2 12 -10 27 -18 32 -11 7 -11 9 -1 9 10 0 9 4
-3 16 -13 14 -14 19 -3 25 10 7 10 9 -2 9 -13 0 -13 1 0 10 13 8 12 10 -2 10
-10 0 -18 5 -18 11 0 5 6 7 13 4 6 -4 4 0 -5 8 -13 10 -15 16 -6 25 9 9 9 12
-1 12 -7 0 -11 6 -7 15 3 8 -2 19 -11 23 -11 6 -14 18 -11 36 4 18 2 23 -6 17
-8 -7 -12 7 -13 47 -2 31 -7 58 -13 60 -5 2 -10 10 -10 18 0 9 5 13 13 9 6 -4
5 0 -5 7 -12 11 -14 18 -6 32 7 13 7 17 0 12 -6 -3 -13 -2 -17 4 -3 5 0 10 7
10 9 0 9 3 -2 10 -13 9 -13 10 0 11 10 0 8 3 -5 9 -11 5 -14 9 -6 9 11 1 11 4
0 18 -12 15 -12 16 1 8 11 -7 10 -2 -4 19 -10 16 -14 26 -9 23 5 -4 10 0 10 8
0 8 -4 12 -9 9 -4 -3 -8 9 -8 26 0 20 -4 29 -11 24 -8 -4 -8 -1 -2 12 10 20
10 26 -2 61 -4 13 -12 20 -19 16 -7 -4 -7 -1 1 8 9 11 9 19 2 26 -7 7 -8 13 0
17 5 4 8 13 5 21 -4 8 -9 13 -13 10 -4 -2 -8 2 -8 10 0 8 5 15 11 15 6 0 5 4
-3 9 -8 5 -11 16 -8 25 4 9 1 16 -4 16 -7 0 -9 11 -7 25 3 14 2 28 -2 30 -5 3
-6 14 -3 24 3 10 0 22 -6 25 -8 5 -8 13 -1 27 8 13 7 19 0 19 -6 0 -8 5 -5 10
3 6 1 10 -6 10 -7 0 -4 7 7 15 14 11 15 14 2 9 -12 -4 -16 -1 -14 13 2 10 0
20 -5 23 -4 3 -9 26 -10 52 -2 26 -6 45 -11 42 -4 -3 -8 4 -8 15 0 12 6 21 13
22 6 0 3 4 -8 9 -12 5 -14 9 -6 9 11 1 10 5 -5 17 -10 8 -13 13 -7 9 9 -4 12
7 10 40 -1 25 -6 45 -11 45 -5 0 -4 6 3 13 8 10 7 17 -1 25 -7 7 -9 12 -5 12
4 0 3 9 -3 20 -8 15 -8 20 1 20 8 0 8 4 -1 15 -10 12 -9 15 6 15 15 0 16 2 5
9 -8 5 -10 14 -6 21 5 9 4 11 -3 6 -7 -4 -12 -2 -12 3 0 6 4 11 9 11 4 0 6 12
3 28 -5 25 -4 26 14 12 18 -15 18 -14 1 12 -22 36 -22 59 1 52 16 -5 16 -5 0
6 -19 11 -26 36 -8 25 6 -3 10 -1 10 4 0 6 -5 11 -11 11 -8 0 -7 6 2 17 8 9 9
14 3 10 -7 -4 -15 0 -18 9 -9 23 -7 31 3 16 7 -11 9 -11 14 2 4 9 -2 21 -14
30 -20 14 -57 72 -39 61 5 -3 11 -1 15 5 3 5 -2 10 -12 10 -15 0 -16 2 -3 10
10 6 11 10 3 10 -7 0 -13 5 -13 11 0 5 3 8 8 6 8 -6 7 91 -2 100 -3 3 -1 14 5
24 8 15 6 19 -6 19 -15 0 -15 2 -1 15 17 17 11 49 -8 38 -6 -3 -6 -1 2 8 14
16 16 33 2 24 -6 -3 -7 1 -4 9 3 9 10 14 14 11 15 -9 4 26 -11 37 -10 7 -11
11 -2 14 9 4 9 13 2 31 -7 20 -6 28 3 35 9 5 9 8 1 8 -12 0 -12 17 0 38 5 7 3
12 -3 12 -6 0 -8 5 -5 10 4 6 12 7 18 4 8 -5 8 -3 0 7 -15 16 -17 33 -3 24 6
-3 10 -1 10 4 0 6 -7 11 -17 11 -14 0 -14 2 2 20 18 20 18 21 -1 14 -15 -6
-17 -5 -8 7 15 18 15 69 0 69 -6 0 -4 5 4 10 13 9 13 11 0 20 -8 5 -10 10 -5
10 13 0 18 47 6 55 -5 3 -7 14 -4 25 3 11 9 18 13 15 5 -3 12 0 16 6 4 7 3 9
-4 5 -16 -10 -20 27 -5 45 11 13 11 16 -2 16 -8 0 -11 -5 -8 -10 3 -6 1 -7 -6
-3 -8 5 -9 12 -3 19 6 7 9 31 7 55 -1 23 1 42 4 42 3 0 6 29 6 64 0 52 -3 63
-15 59 -9 -3 -11 -2 -5 4 11 9 16 40 15 91 -1 24 3 32 12 26 6 -4 2 6 -10 23
-16 23 -19 34 -11 39 8 5 9 3 4 -6 -5 -9 -4 -11 3 -6 17 10 15 26 -4 26 -8 0
-12 5 -9 10 4 6 10 8 14 6 11 -7 4 53 -9 68 -9 11 -7 17 7 25 17 10 17 10 0
11 -10 0 -15 5 -12 10 4 6 11 8 16 5 10 -7 1 24 -15 45 -10 13 -9 13 9 0 19
-15 19 -15 1 14 -10 16 -14 26 -8 22 14 -8 21 41 9 53 -8 8 -7 11 1 11 7 0 12
4 12 10 0 5 -8 7 -17 4 -14 -4 -13 -1 4 14 19 17 20 21 7 26 -8 3 -12 11 -9
17 10 14 14 59 5 54 -4 -2 -7 2 -7 10 0 8 4 12 9 9 5 -4 9 0 7 7 -3 28 1 40
14 34 6 -4 4 0 -6 8 -20 16 -7 34 16 21 6 -4 4 2 -6 13 -11 12 -14 24 -9 27 6
3 9 22 7 41 -2 19 0 35 5 35 5 0 5 14 0 31 -7 24 -6 30 4 26 9 -4 12 6 9 40
-4 35 -2 43 9 37 7 -4 4 2 -6 14 -12 14 -15 22 -6 22 6 0 10 6 7 14 -3 7 0 19
6 26 9 10 9 11 0 6 -17 -10 -16 4 2 28 11 14 12 23 4 33 -9 9 -8 13 0 13 7 0
10 4 7 9 -4 5 0 12 6 14 10 4 10 6 1 6 -9 1 -10 8 -3 25 4 13 7 35 6 50 -3 20
0 24 9 16 9 -8 12 -4 9 17 -1 15 2 36 8 47 10 19 10 20 -6 7 -14 -12 -16 -12
-10 3 3 9 10 16 15 16 6 0 5 9 -1 20 -9 17 -8 19 7 13 15 -6 16 -4 6 8 -9 12
-10 18 -1 27 8 8 8 16 -3 28 -12 15 -12 17 0 9 11 -6 13 -4 8 9 -4 9 -3 15 2
12 5 -3 11 1 15 9 3 8 1 15 -5 15 -6 0 -7 5 -4 10 4 6 11 8 16 5 5 -3 6 1 3 9
-3 9 -1 16 5 16 6 0 10 3 10 8 -3 19 2 33 11 27 5 -3 7 0 4 8 -3 8 2 17 11 21
13 4 14 10 5 26 -6 12 -7 20 -1 20 5 0 8 11 6 25 -1 14 1 25 5 25 4 0 6 11 5
25 -2 16 1 23 8 18 6 -4 8 0 4 10 -4 10 1 22 14 31 15 10 17 15 7 19 -9 4 -9
6 -1 6 7 1 10 8 6 18 -5 12 -3 14 8 8 11 -6 11 -5 2 5 -7 7 -8 19 -3 29 4 9
13 29 19 44 6 15 15 26 20 22 5 -3 12 -1 15 4 4 5 1 13 -5 17 -8 5 -9 3 -4 -6
5 -9 4 -11 -4 -6 -8 5 -7 13 4 29 17 25 20 41 5 32 -5 -3 -10 -1 -10 4 0 6 5
11 11 11 6 0 22 9 36 20 14 11 22 20 18 20 -5 0 -16 -7 -26 -16 -11 -10 -19
-12 -24 -4 -3 6 -3 9 2 8 5 -2 20 8 33 21 14 13 19 21 13 17 -7 -4 -13 -2 -13
3 0 6 6 11 13 11 8 0 7 4 -3 10 -13 9 -13 10 0 10 9 0 11 3 5 8 -15 10 -13 28
7 52 12 13 14 20 5 20 -8 0 -7 4 3 10 12 8 12 10 -5 10 -18 1 -18 2 -3 11 10
5 15 16 12 24 -4 8 -1 15 6 15 6 0 8 5 5 10 -4 6 -2 16 3 23 6 7 11 15 11 19
6 42 15 67 21 63 4 -3 11 2 14 11 3 9 2 12 -5 8 -6 -3 -5 3 3 15 7 12 16 21
21 21 4 0 6 4 3 9 -4 5 10 31 31 58 20 26 28 41 18 33 -18 -14 -18 -13 0 12
11 15 24 28 28 28 5 0 6 4 2 9 -3 5 -1 12 4 16 6 3 8 12 4 20 -3 8 0 15 6 15
6 0 11 9 11 20 0 11 5 20 12 20 6 0 9 3 5 6 -11 11 23 65 36 57 7 -4 7 0 -2
10 -8 11 -9 17 -3 17 6 0 9 7 5 15 -3 10 0 15 8 13 8 -2 13 3 11 10 -1 6 5 12
14 12 10 0 14 6 10 15 -3 9 0 15 10 15 8 0 12 5 9 10 -3 6 -1 10 5 10 6 0 8 5
4 12 -5 8 -2 9 10 5 9 -4 15 -3 12 1 -2 4 -1 14 5 22 6 10 9 11 9 3 0 -7 5
-13 11 -13 6 0 9 6 6 13 -2 6 3 18 12 25 13 11 13 12 1 7 -10 -4 -9 -2 3 8 19
16 24 32 5 21 -7 -4 -8 -3 -4 5 6 9 11 9 22 0 8 -6 17 -9 21 -5 3 3 1 6 -5 6
-7 0 -12 7 -12 16 0 8 5 12 10 9 7 -4 9 3 6 19 -3 15 -1 24 5 21 5 -4 6 -11 3
-17 -4 -5 5 -2 20 7 31 20 35 30 6 15 -25 -13 -26 -2 -2 17 10 8 11 11 2 7
-13 -7 -13 -6 -1 10 8 9 20 15 27 12 7 -3 16 0 20 6 4 6 3 8 -3 5 -6 -4 -14 0
-17 9 -5 13 -2 15 14 11 11 -3 23 0 27 5 4 7 1 8 -7 3 -8 -5 -11 -3 -8 6 3 8
12 13 19 11 11 -3 11 -1 3 8 -9 9 -4 19 18 41 17 16 36 26 42 22 6 -4 6 0 -2
9 -10 13 -9 15 10 14 14 0 22 4 21 12 -2 6 2 12 8 12 8 0 7 5 -1 15 -11 13
-10 14 5 9 13 -5 16 -4 11 4 -4 7 -2 12 3 12 6 0 10 3 8 8 -1 4 3 7 8 7 6 0 9
-4 7 -8 -1 -5 2 -6 7 -3 5 3 7 15 4 25 -5 20 21 67 35 64 4 0 14 3 22 9 12 8
12 9 -2 4 -21 -6 -23 0 -5 19 9 8 19 10 30 4 10 -6 18 -5 23 2 4 8 3 9 -4 5
-7 -4 -12 -3 -12 3 0 11 51 61 62 61 5 0 8 8 9 18 0 9 3 12 5 5 7 -16 34 -5
34 13 0 17 21 18 40 2 8 -7 6 -3 -5 10 -17 20 -17 22 -2 16 12 -4 17 -2 15 6
-2 7 3 15 11 18 10 3 11 0 5 -9 -6 -12 -5 -11 10 0 13 11 14 16 4 22 -10 7 -9
9 5 9 9 0 17 5 17 10 0 6 9 10 20 10 11 0 19 3 18 8 -2 4 5 18 15 32 9 13 17
20 17 14 0 -5 -3 -14 -7 -20 -5 -5 -1 -2 8 8 9 9 20 14 23 10 4 -3 4 1 1 9 -4
11 1 18 15 22 12 3 19 10 15 16 -3 6 0 9 8 5 8 -3 20 3 28 12 12 15 12 17 0 9
-10 -5 -12 -4 -7 4 4 6 11 9 16 6 5 -3 15 3 21 14 7 10 19 17 26 14 7 -3 13
-1 13 5 0 5 9 12 21 15 14 4 18 10 13 19 -4 7 -4 10 1 6 4 -4 15 -2 23 5 13
10 15 9 8 -3 -4 -9 -2 -8 7 2 8 10 17 15 20 11 4 -3 7 -1 7 6 0 7 5 11 12 9 7
-3 23 7 37 21 16 17 22 20 18 9 -3 -10 -1 -20 5 -24 6 -4 8 -3 5 3 -8 12 18
37 30 30 9 -5 34 18 27 25 -2 3 6 4 19 4 13 -1 21 4 19 12 -2 10 2 10 20 1 13
-6 20 -8 16 -4 -12 13 15 34 30 23 9 -8 12 -5 12 8 0 15 2 16 9 5 6 -9 11 -10
15 -2 10 15 29 14 21 -1 -4 -7 0 -5 7 4 10 11 19 14 28 8 9 -6 17 -4 22 3 6 9
8 8 8 -3 0 -12 2 -12 8 -2 7 10 15 10 37 2 26 -10 27 -9 14 6 -13 16 -12 16 6
7 26 -14 37 -14 54 0 8 7 12 7 9 2 -4 -7 14 -12 50 -13 31 -1 60 -8 64 -15 7
-12 12 -2 8 18 -1 5 7 1 18 -8 11 -10 36 -19 56 -20 20 -1 36 -6 36 -11 0 -4
8 -6 18 -4 16 4 55 -25 46 -35 -3 -2 7 -4 21 -4 14 0 34 -8 44 -17 10 -9 22
-13 26 -9 5 5 3 -1 -5 -11 -10 -13 -10 -17 -2 -12 7 4 12 2 12 -6 0 -9 3 -9
10 2 5 8 10 10 10 4 0 -7 9 -14 20 -17 11 -3 20 -10 20 -17 0 -6 -5 -8 -12 -4
-7 4 -8 3 -4 -5 6 -9 11 -9 24 1 12 10 14 10 8 1 -4 -8 -1 -13 8 -13 9 0 15
-3 15 -7 -3 -20 2 -31 17 -37 14 -5 15 -4 4 9 -7 8 -8 15 -2 15 14 0 23 -28
11 -36 -7 -4 -5 -12 4 -22 8 -10 16 -24 19 -32 3 -10 6 -8 10 8 4 12 2 20 -3
16 -5 -3 -6 2 -3 11 7 17 14 15 18 -7 1 -7 6 -19 10 -27 7 -10 6 -12 -4 -6 -9
5 -11 4 -6 -4 4 -6 17 -9 29 -7 14 4 11 0 -8 -10 l-30 -15 28 6 c15 3 27 1 27
-5 0 -5 6 -10 14 -10 8 0 18 -5 22 -12 5 -7 3 -8 -6 -3 -8 5 -11 4 -6 -3 3 -6
15 -9 26 -7 12 2 18 1 16 -4 -3 -4 4 -13 14 -21 10 -8 17 -17 14 -22 -3 -4 2
-8 12 -8 14 0 15 -2 3 -17 -10 -11 -10 -14 -1 -9 6 4 12 2 12 -3 0 -6 9 -11
20 -11 14 0 20 -7 21 -22 0 -13 3 -18 6 -11 3 10 7 10 18 0 10 -9 10 -15 1
-26 -8 -12 -8 -13 2 -7 7 4 12 2 12 -4 0 -6 5 -8 10 -5 6 4 10 -6 10 -22 0
-22 2 -25 10 -13 9 14 11 13 14 -10 0 -5 8 -18 16 -28 45 -55 59 -81 47 -85
-7 -4 -6 -6 4 -6 11 -1 15 -9 14 -26 -2 -14 1 -23 6 -19 5 3 6 10 3 16 -4 7
-2 8 4 4 6 -4 9 -13 5 -21 -3 -8 0 -15 7 -15 6 0 9 -4 5 -9 -3 -5 2 -16 11
-25 8 -9 13 -20 9 -25 -3 -5 0 -13 6 -17 8 -5 9 -3 4 6 -5 8 -4 11 3 6 6 -4 9
-13 6 -20 -3 -7 2 -21 11 -30 10 -9 12 -16 5 -16 -7 0 -5 -6 4 -16 15 -15 20
-29 17 -47 -1 -5 3 -6 8 -2 13 7 34 -32 25 -47 -4 -7 -3 -8 4 -4 7 4 12 1 12
-9 0 -9 5 -13 10 -10 6 4 10 3 9 -2 -5 -27 2 -53 12 -47 7 4 10 1 7 -7 -5 -14
14 -39 28 -39 4 0 18 -10 31 -22 15 -14 23 -17 23 -8 0 9 4 8 13 -5 11 -14 16
-15 22 -5 6 9 4 11 -5 5 -8 -5 -11 -4 -6 3 9 14 38 3 30 -12 -3 -6 2 -2 10 8
12 15 16 16 16 5 1 -10 5 -8 16 6 8 11 20 20 27 20 7 1 11 7 9 15 -3 11 0 11
14 -1 12 -9 15 -9 10 -1 -4 7 -2 12 4 12 6 0 8 5 5 10 -3 6 1 10 9 10 8 0 18
5 22 12 5 8 1 9 -12 5 -14 -5 -12 -2 6 13 21 17 23 21 10 30 -13 9 -13 10 0
10 13 0 13 1 0 10 -13 8 -12 10 3 10 17 0 17 1 3 16 -18 18 -22 39 -5 28 8 -5
8 -1 0 13 -6 11 -7 23 -3 27 3 4 -1 4 -10 1 -9 -4 -19 -1 -24 6 -5 8 -3 10 7
5 9 -5 9 -3 -1 6 -9 7 -14 22 -12 33 2 16 1 17 -7 5 -9 -12 -11 -11 -11 8 0
12 -4 22 -10 22 -5 0 -10 9 -10 19 0 11 -6 26 -13 33 -8 7 -12 19 -9 27 3 8 0
11 -7 7 -10 -6 -15 6 -12 27 0 4 -4 7 -9 7 -6 0 -10 7 -10 15 0 23 -22 65 -31
59 -5 -3 -9 4 -9 15 0 12 -6 21 -12 21 -9 0 -8 4 2 10 10 6 11 10 3 10 -7 0
-13 7 -13 15 0 8 -6 15 -14 15 -9 0 -12 7 -9 20 4 14 0 20 -11 20 -10 0 -14 5
-11 10 3 6 1 10 -5 10 -6 0 -8 5 -5 10 3 6 2 10 -4 10 -6 0 -19 18 -29 40 -10
22 -21 37 -25 34 -4 -4 -7 3 -7 15 0 12 -4 20 -9 17 -5 -3 -12 1 -15 10 -3 9
-11 12 -18 8 -7 -4 -10 -4 -6 1 8 9 -15 35 -32 35 -6 0 -8 5 -5 10 3 6 1 10
-5 10 -6 0 -21 10 -33 21 -12 12 -16 18 -8 14 9 -5 12 -4 7 3 -4 6 -14 8 -23
5 -11 -4 -14 -3 -9 5 4 7 1 12 -9 12 -9 0 -13 5 -10 10 3 6 0 10 -8 10 -20 0
-59 47 -44 54 7 2 2 5 -11 5 -16 1 -21 5 -16 14 4 6 4 9 -1 5 -13 -12 -47 12
-41 29 5 13 4 14 -9 3 -12 -10 -15 -9 -16 6 0 11 -3 14 -6 7 -3 -8 -12 -4 -27
12 -13 14 -29 25 -36 25 -7 0 -23 12 -36 26 -13 14 -29 22 -34 19 -6 -3 -10
-2 -10 4 0 6 -7 8 -15 5 -11 -5 -13 -2 -8 12 4 12 3 15 -6 10 -6 -4 -18 -2
-26 4 -8 7 -15 9 -15 5 0 -4 -6 -2 -13 4 -8 6 -17 7 -21 3 -4 -4 -6 -1 -4 7 2
7 -3 16 -11 19 -10 3 -11 0 -5 -9 7 -12 5 -12 -9 0 -9 7 -17 10 -17 6 0 -4 -6
-2 -13 4 -8 6 -18 7 -23 3 -4 -4 -2 1 5 10 11 15 10 17 -8 13 -12 -2 -21 0
-21 4 0 7 -7 9 -49 13 -11 1 -17 6 -15 10 3 4 -4 8 -15 8 -12 0 -21 6 -22 13
0 6 -4 3 -9 -8 -6 -14 -9 -15 -9 -5 -1 15 -19 19 -93 23 -16 1 -28 6 -28 12 0
5 -5 3 -10 -5 -5 -8 -10 -10 -10 -5 0 6 -9 11 -20 12 -13 1 -18 -2 -13 -10 5
-9 3 -9 -8 -1 -8 6 -23 14 -33 18 -17 6 -17 5 -5 -10 13 -16 12 -16 -9 -5 -13
7 -33 11 -45 9 -12 -1 -28 1 -34 5 -7 5 -13 5 -13 0 0 -4 -18 -8 -40 -8 -29 0
-40 4 -40 15 0 13 -1 13 -10 0 -9 -13 -11 -13 -20 0 -8 13 -10 12 -10 -4z
m1030 -776 c0 -5 -2 -10 -4 -10 -3 0 -8 5 -11 10 -3 6 -1 10 4 10 6 0 11 -4
11 -10z m-722 -1019 c2 -6 8 -11 13 -11 18 0 67 -52 62 -66 -3 -8 1 -14 8 -14
7 0 9 -3 6 -7 -4 -3 1 -12 11 -20 11 -10 12 -12 2 -8 -8 4 -4 -3 10 -15 14
-12 19 -19 13 -15 -7 3 -13 1 -13 -4 0 -6 5 -11 11 -11 5 0 7 -5 4 -10 -3 -6
1 -13 10 -16 13 -5 13 -9 3 -22 -7 -9 -8 -13 -3 -10 6 4 17 3 25 -3 13 -7 13
-9 1 -9 -11 0 -10 -4 5 -16 10 -8 13 -13 7 -9 -9 4 -11 1 -7 -9 3 -9 10 -14
14 -11 4 3 11 -2 14 -11 3 -8 2 -12 -3 -9 -5 3 -13 0 -17 -6 -4 -8 -3 -9 4 -5
7 4 12 2 12 -4 0 -6 5 -8 12 -4 8 5 9 2 5 -9 -3 -10 -2 -17 4 -17 6 0 7 -4 4
-10 -3 -5 -1 -10 5 -10 6 0 9 -4 6 -9 -3 -5 1 -12 10 -15 14 -5 14 -9 3 -23
-8 -9 -9 -14 -3 -10 13 7 34 -28 37 -60 0 -12 5 -19 9 -17 4 3 8 -6 8 -20 0
-16 6 -26 15 -26 8 0 15 -3 16 -7 0 -5 2 -19 3 -32 2 -14 8 -27 14 -29 6 -2 8
-10 5 -18 -3 -9 1 -14 12 -14 11 0 15 -7 13 -22 -2 -13 2 -22 8 -21 6 1 11 -4
11 -12 0 -8 -5 -11 -11 -8 -6 4 -5 0 1 -9 7 -8 9 -18 5 -22 -4 -4 -1 -6 7 -4
9 2 17 -9 23 -29 5 -18 12 -33 17 -33 5 0 8 -10 7 -22 0 -13 4 -22 11 -21 6 1
10 -5 8 -15 -1 -9 2 -20 8 -23 5 -4 10 -18 10 -33 0 -15 4 -23 10 -19 6 4 8 0
4 -10 -3 -10 -2 -17 4 -17 6 0 7 -4 4 -10 -3 -5 0 -10 8 -10 10 0 13 -9 11
-31 -3 -20 0 -28 7 -23 7 4 10 1 7 -7 -3 -8 2 -20 11 -27 13 -11 13 -12 1 -6
-10 5 -8 -1 5 -16 11 -13 14 -20 8 -16 -9 5 -11 2 -7 -8 3 -9 9 -14 13 -11 8
4 9 -3 12 -50 1 -13 5 -22 10 -19 9 5 13 -9 10 -35 -2 -8 2 -10 10 -5 9 5 10
2 6 -9 -3 -10 -2 -17 3 -17 5 0 6 -7 3 -17 -4 -10 -2 -14 4 -10 6 4 11 -4 11
-19 0 -15 5 -30 11 -34 7 -4 13 -17 14 -28 1 -12 5 -22 10 -22 5 0 7 -9 4 -20
-3 -11 -1 -18 3 -15 5 3 11 1 14 -4 4 -5 2 -12 -4 -16 -13 -8 11 -35 25 -27 6
3 4 -2 -4 -11 -9 -12 -10 -17 -2 -17 7 0 9 -4 6 -10 -3 -5 -2 -10 3 -10 6 0 8
-10 5 -22 -4 -19 -3 -20 7 -8 10 12 11 11 7 -7 -3 -14 0 -23 6 -23 7 0 5 -5
-3 -10 -13 -8 -12 -10 4 -10 11 0 16 -3 13 -6 -3 -4 -1 -16 5 -28 7 -11 13
-28 14 -36 3 -30 9 -45 24 -58 13 -12 13 -13 -4 -8 -16 6 -17 4 -6 -9 7 -8 17
-12 23 -8 6 3 7 1 3 -5 -4 -6 0 -27 8 -47 11 -25 12 -34 3 -29 -9 5 -9 3 1 -7
6 -7 12 -21 12 -31 0 -10 4 -18 10 -18 5 0 6 -7 3 -17 -4 -10 -2 -14 5 -9 7 4
10 -1 7 -14 -2 -11 0 -20 5 -20 4 0 7 -11 6 -25 -2 -15 1 -22 7 -18 7 4 8 0 4
-11 -6 -14 -3 -17 9 -12 14 5 15 4 4 -9 -10 -12 -9 -16 5 -21 13 -5 14 -9 3
-15 -10 -6 -8 -9 7 -9 15 0 17 -2 6 -9 -9 -6 -10 -11 -2 -15 6 -4 9 -12 6 -17
-4 -5 -1 -9 4 -9 6 0 11 -5 11 -11 0 -5 -5 -7 -11 -4 -6 4 -5 -2 2 -13 7 -12
16 -19 19 -17 4 2 7 -2 7 -10 0 -8 -4 -12 -8 -9 -4 2 -10 0 -14 -6 -4 -6 -11
-8 -16 -5 -5 4 -9 0 -9 -7 0 -8 -3 -9 -8 -3 -9 13 -62 14 -55 1 4 -5 0 -7 -9
-4 -8 4 -21 2 -29 -2 -7 -5 -18 -5 -25 1 -8 7 -17 4 -28 -6 -9 -9 -16 -12 -16
-6 0 6 -5 11 -11 11 -5 0 -7 -5 -3 -11 4 -7 -1 -7 -16 1 -21 11 -22 10 -16 -6
6 -15 5 -16 -5 -7 -10 10 -16 10 -27 0 -12 -9 -16 -9 -19 0 -4 10 -8 9 -19 -1
-8 -8 -24 -13 -36 -11 -12 3 -27 0 -34 -6 -7 -6 -29 -11 -48 -12 -24 -1 -35
-6 -31 -14 6 -16 -7 -17 -23 -1 -9 9 -12 9 -12 -1 0 -7 -4 -9 -10 -6 -5 3 -10
2 -10 -4 0 -5 -11 -8 -25 -6 -14 1 -25 -2 -25 -6 0 -5 -5 -9 -11 -9 -5 0 -7 6
-3 13 4 6 -2 4 -13 -6 -11 -9 -23 -14 -26 -10 -4 3 -7 1 -7 -7 0 -9 -3 -10
-14 -1 -11 9 -15 8 -20 -6 -6 -15 -8 -15 -16 -3 -7 11 -10 12 -10 2 0 -7 -4
-10 -10 -7 -5 3 -10 2 -10 -4 0 -5 -12 -8 -26 -5 -14 3 -23 1 -20 -4 2 -4 -5
-9 -17 -9 -29 -2 -49 -7 -64 -16 -7 -5 -17 -5 -23 -2 -5 3 -10 1 -10 -5 0 -6
-4 -8 -10 -5 -5 3 -10 2 -10 -4 0 -6 -7 -8 -15 -5 -9 4 -15 0 -15 -7 0 -11 -3
-11 -10 1 -7 11 -10 12 -10 2 0 -8 -6 -12 -12 -9 -7 2 -19 -3 -26 -12 -11 -15
-12 -15 -7 0 4 9 0 16 -9 16 -8 0 -12 -5 -10 -12 3 -6 -6 -11 -20 -11 -14 0
-22 4 -20 8 3 5 10 6 15 3 5 -3 6 1 3 9 -3 9 -11 13 -18 10 -6 -3 -3 1 6 9 20
16 14 28 -10 20 -10 -4 -7 3 8 16 14 12 19 20 13 16 -9 -4 -13 2 -13 19 0 13
6 27 13 29 7 3 5 6 -6 6 -14 1 -16 5 -7 20 6 13 7 22 0 26 -6 4 -3 17 7 33 17
26 17 27 -1 12 -18 -14 -19 -14 -6 10 17 30 21 52 10 45 -4 -3 -10 4 -13 14
-4 15 -1 18 12 13 13 -5 14 -3 4 10 -7 8 -10 18 -6 21 3 4 0 13 -7 22 -11 13
-10 15 2 10 10 -4 14 0 13 14 -1 11 -4 24 -8 27 -10 11 -8 26 2 20 11 -7 9 13
-2 32 -5 6 -5 12 0 12 4 0 8 14 8 30 0 17 -5 30 -12 30 -7 0 -13 5 -13 11 0 5
4 8 9 4 5 -3 12 -1 16 5 3 5 1 10 -6 10 -10 0 -10 3 -1 12 9 9 8 16 -5 30 -13
15 -14 18 -2 13 11 -4 14 3 14 30 -1 19 -4 38 -8 41 -4 4 -2 13 4 20 7 8 7 14
-1 19 -8 5 -7 11 2 23 10 12 10 14 1 8 -7 -4 -13 -2 -13 3 0 6 6 11 13 11 8 0
7 4 -3 10 -13 9 -13 10 0 10 12 0 12 2 1 9 -8 5 -9 11 -3 15 13 8 10 29 -7 50
-12 14 -12 16 0 11 11 -4 14 2 14 20 -1 14 -5 28 -8 32 -10 9 -9 25 1 19 5 -3
9 1 9 9 0 8 -5 11 -10 8 -7 -4 -8 1 -3 13 11 28 14 64 5 59 -4 -3 -7 4 -6 15
1 11 6 20 11 20 5 0 1 7 -10 16 -10 8 -14 13 -8 10 7 -3 15 1 18 10 4 10 2 13
-7 8 -8 -5 -7 -2 2 9 10 13 10 17 1 17 -10 0 -10 3 0 15 9 10 9 15 1 15 -6 0
-11 5 -11 11 0 5 6 7 13 3 8 -5 8 -2 -2 9 -9 12 -10 17 -2 17 9 0 9 5 0 21 -9
17 -8 20 3 13 11 -6 11 -5 -1 9 -11 14 -11 17 0 18 11 0 11 2 1 6 -10 4 -10 8
-1 19 9 11 9 14 -1 14 -9 0 -9 4 1 17 10 11 10 14 2 9 -7 -4 -13 -2 -13 3 0 6
5 11 11 11 8 0 8 5 -1 15 -10 12 -10 15 1 16 11 0 11 2 1 6 -10 4 -10 8 0 21
10 12 10 14 1 8 -7 -4 -13 -2 -13 3 0 6 5 11 12 11 9 0 9 3 0 12 -6 6 -8 18
-3 27 6 14 7 36 1 44 -8 10 -6 37 3 37 6 0 2 7 -9 16 -10 8 -14 13 -8 10 7 -3
15 1 18 10 4 10 2 13 -7 8 -8 -5 -7 -2 2 9 10 13 10 17 1 17 -10 0 -10 3 0 15
9 10 9 15 1 15 -6 0 -11 5 -11 11 0 5 6 7 13 3 8 -5 8 -2 -2 9 -9 12 -10 17
-2 17 9 0 9 5 0 21 -9 17 -8 20 3 13 11 -6 11 -5 -1 9 -11 14 -11 17 0 18 10
0 11 2 1 6 -6 2 -9 10 -5 16 12 18 10 31 -6 43 -11 9 -12 12 -1 19 9 6 11 4 5
-6 -5 -8 -4 -11 0 -6 13 11 13 47 1 47 -7 0 -7 3 1 8 8 5 9 13 3 22 -5 8 -5
21 1 32 7 13 6 18 -3 18 -9 0 -9 3 2 10 13 9 13 10 0 10 -12 0 -12 2 -1 9 9 6
10 11 2 15 -8 5 -8 13 -1 27 8 14 7 19 -2 19 -10 0 -9 3 1 9 12 8 12 12 2 25
-9 11 -10 16 -2 16 6 0 11 5 11 11 0 5 -6 7 -12 3 -9 -5 -9 -2 1 9 10 13 10
17 1 17 -9 0 -9 4 1 17 12 15 12 16 -1 8 -13 -8 -13 -7 -1 8 11 14 11 20 1 32
-9 11 -9 15 -1 15 7 0 9 5 4 13 -10 17 -12 57 -1 51 4 -3 8 -1 8 5 0 5 -5 13
-11 17 -8 4 -7 9 2 15 12 8 12 10 0 18 -9 6 -10 11 -2 15 6 4 11 12 11 17 0 6
-5 7 -11 3 -8 -4 -8 0 0 15 7 12 8 21 2 21 -5 0 -7 8 -4 18 3 14 13 17 51 16
25 -1 48 -7 50 -13z m-391 -86 c0 -8 -4 -12 -9 -9 -5 3 -6 10 -3 15 9 13 12
11 12 -6z m1337 -1041 c5 -14 4 -15 -9 -4 -17 14 -19 20 -6 20 5 0 12 -7 15
-16z m-3732 -596 c-7 -7 -12 -8 -12 -2 0 14 12 26 19 19 2 -3 -1 -11 -7 -17z
m453 -547 c3 -5 2 -12 -3 -15 -5 -3 -9 1 -9 9 0 17 3 19 12 6z m5 -165 c0 -3
-4 -8 -10 -11 -5 -3 -10 -1 -10 4 0 6 5 11 10 11 6 0 10 -2 10 -4z m1100 -540
c0 -2 -8 -10 -17 -17 -16 -13 -17 -12 -4 4 13 16 21 21 21 13z m-1055 -526 c3
-6 -1 -7 -9 -4 -18 7 -21 14 -7 14 6 0 13 -4 16 -10z m1806 -607 c13 -16 12
-17 -3 -4 -10 7 -18 15 -18 17 0 8 8 3 21 -13z m-1684 -478 c0 -8 -4 -12 -9
-9 -5 3 -6 10 -3 15 9 13 12 11 12 -6z m2703 -1479 c0 -2 -8 -10 -17 -17 -16
-13 -17 -12 -4 4 13 16 21 21 21 13z m-1595 -906 c3 -5 1 -10 -4 -10 -6 0 -11
5 -11 10 0 6 2 10 4 10 3 0 8 -4 11 -10z m409 -208 c3 -5 -1 -9 -9 -9 -8 0
-12 4 -9 9 3 4 7 8 9 8 2 0 6 -4 9 -8z"/>
<path d="M5758 9263 c7 -3 16 -2 19 1 4 3 -2 6 -13 5 -11 0 -14 -3 -6 -6z"/>
<path d="M4196 9102 c-3 -5 1 -9 9 -9 8 0 12 4 9 9 -3 4 -7 8 -9 8 -2 0 -6 -4
-9 -8z"/>
<path d="M3939 8803 c-13 -16 -12 -17 4 -4 9 7 17 15 17 17 0 8 -8 3 -21 -13z"/>
<path d="M5806 7993 c-6 -14 -5 -15 5 -6 7 7 10 15 7 18 -3 3 -9 -2 -12 -12z"/>
<path d="M6036 7607 c3 -10 9 -15 12 -12 3 3 0 11 -7 18 -10 9 -11 8 -5 -6z"/>
<path d="M3295 7520 c3 -5 8 -10 11 -10 2 0 4 5 4 10 0 6 -5 10 -11 10 -5 0
-7 -4 -4 -10z"/>
<path d="M4929 7428 c-5 -18 -6 -38 -1 -34 7 8 12 36 6 36 -2 0 -4 -1 -5 -2z"/>
<path d="M3008 5943 c7 -3 16 -2 19 1 4 3 -2 6 -13 5 -11 0 -14 -3 -6 -6z"/>
<path d="M3015 5680 c-3 -5 -1 -10 4 -10 6 0 11 5 11 10 0 6 -2 10 -4 10 -3 0
-8 -4 -11 -10z"/>
<path d="M6925 5460 c-3 -5 -1 -10 4 -10 6 0 11 5 11 10 0 6 -2 10 -4 10 -3 0
-8 -4 -11 -10z"/>
<path d="M4770 4620 c0 -5 5 -10 11 -10 5 0 7 5 4 10 -3 6 -8 10 -11 10 -2 0
-4 -4 -4 -10z"/>
<path d="M3060 4366 c0 -2 8 -10 18 -17 15 -13 16 -12 3 4 -13 16 -21 21 -21
13z"/>
<path d="M4757 3989 c7 -7 15 -10 18 -7 3 3 -2 9 -12 12 -14 6 -15 5 -6 -5z"/>
<path d="M6585 3769 c-4 -6 -5 -12 -2 -15 2 -3 7 2 10 11 7 17 1 20 -8 4z"/>
<path d="M2906 2721 c-4 -6 0 -11 9 -11 9 0 15 -6 12 -12 -2 -7 -10 -12 -16
-10 -7 1 -10 -2 -6 -8 9 -15 22 -12 29 7 8 20 -18 51 -28 34z"/>
<path d="M7669 2293 c-13 -16 -12 -17 4 -4 16 13 21 21 13 21 -2 0 -10 -8 -17
-17z"/>
<path d="M5970 2239 c0 -5 5 -7 10 -4 6 3 10 8 10 11 0 2 -4 4 -10 4 -5 0 -10
-5 -10 -11z"/>
<path d="M5720 1660 c-9 -6 -10 -10 -3 -10 6 0 15 5 18 10 8 12 4 12 -15 0z"/>
<path d="M3966 887 c3 -10 9 -15 12 -12 3 3 0 11 -7 18 -10 9 -11 8 -5 -6z"/>
<path d="M4885 850 c-4 -6 -11 -7 -17 -4 -7 4 -8 2 -4 -5 6 -8 12 -9 20 -2 7
6 17 7 21 3 5 -4 5 -1 1 6 -9 15 -13 15 -21 2z"/>
</g>
</svg>
